%TF.GenerationSoftware,KiCad,Pcbnew,7.0.7*%
%TF.CreationDate,2025-01-17T17:57:09+01:00*%
%TF.ProjectId,minisumov3,6d696e69-7375-46d6-9f76-332e6b696361,rev?*%
%TF.SameCoordinates,Original*%
%TF.FileFunction,Soldermask,Top*%
%TF.FilePolarity,Negative*%
%FSLAX46Y46*%
G04 Gerber Fmt 4.6, Leading zero omitted, Abs format (unit mm)*
G04 Created by KiCad (PCBNEW 7.0.7) date 2025-01-17 17:57:09*
%MOMM*%
%LPD*%
G01*
G04 APERTURE LIST*
G04 Aperture macros list*
%AMRoundRect*
0 Rectangle with rounded corners*
0 $1 Rounding radius*
0 $2 $3 $4 $5 $6 $7 $8 $9 X,Y pos of 4 corners*
0 Add a 4 corners polygon primitive as box body*
4,1,4,$2,$3,$4,$5,$6,$7,$8,$9,$2,$3,0*
0 Add four circle primitives for the rounded corners*
1,1,$1+$1,$2,$3*
1,1,$1+$1,$4,$5*
1,1,$1+$1,$6,$7*
1,1,$1+$1,$8,$9*
0 Add four rect primitives between the rounded corners*
20,1,$1+$1,$2,$3,$4,$5,0*
20,1,$1+$1,$4,$5,$6,$7,0*
20,1,$1+$1,$6,$7,$8,$9,0*
20,1,$1+$1,$8,$9,$2,$3,0*%
G04 Aperture macros list end*
%ADD10RoundRect,0.225000X0.250000X-0.225000X0.250000X0.225000X-0.250000X0.225000X-0.250000X-0.225000X0*%
%ADD11C,1.600000*%
%ADD12O,1.600000X1.600000*%
%ADD13R,3.000000X3.000000*%
%ADD14C,3.000000*%
%ADD15O,1.600000X2.000000*%
%ADD16R,1.700000X1.700000*%
%ADD17O,1.700000X1.700000*%
%ADD18R,1.600000X1.600000*%
%ADD19RoundRect,0.243750X0.456250X-0.243750X0.456250X0.243750X-0.456250X0.243750X-0.456250X-0.243750X0*%
%ADD20C,4.000000*%
%ADD21R,2.600000X1.600000*%
%ADD22O,5.500000X3.800000*%
%ADD23O,5.300000X3.800000*%
%ADD24C,1.500000*%
G04 APERTURE END LIST*
D10*
%TO.C,C1*%
X144500000Y-113050000D03*
X144500000Y-111500000D03*
%TD*%
D11*
%TO.C,R3*%
X127500000Y-93200000D03*
D12*
X127500000Y-85580000D03*
%TD*%
D13*
%TO.C,M2*%
X157220000Y-114800000D03*
D14*
X162300000Y-114800000D03*
%TD*%
D15*
%TO.C,Brd1*%
X124760000Y-80800000D03*
X127300000Y-80800000D03*
X129840000Y-80800000D03*
X132380000Y-80800000D03*
%TD*%
D16*
%TO.C,SO1*%
X111100000Y-108980000D03*
D17*
X111100000Y-111520000D03*
X111100000Y-114060000D03*
X111100000Y-116600000D03*
%TD*%
D16*
%TO.C,J5*%
X150160000Y-109600000D03*
D17*
X152700000Y-109600000D03*
%TD*%
D10*
%TO.C,C2*%
X139600000Y-112975000D03*
X139600000Y-111425000D03*
%TD*%
D16*
%TO.C,S2*%
X115500000Y-87100000D03*
D17*
X115500000Y-89640000D03*
X115500000Y-92180000D03*
%TD*%
D18*
%TO.C,TB1*%
X177400000Y-81260000D03*
D12*
X177400000Y-83800000D03*
X177400000Y-86340000D03*
X177400000Y-88880000D03*
X177400000Y-91420000D03*
X177400000Y-93960000D03*
X177400000Y-96500000D03*
X177400000Y-99040000D03*
X190100000Y-99040000D03*
X190100000Y-96500000D03*
X190100000Y-93960000D03*
X190100000Y-91420000D03*
X190100000Y-88880000D03*
X190100000Y-86340000D03*
X190100000Y-83800000D03*
X190100000Y-81260000D03*
%TD*%
D11*
%TO.C,R5*%
X133900000Y-93200000D03*
D12*
X133900000Y-85580000D03*
%TD*%
D16*
%TO.C,S1*%
X111900000Y-87075000D03*
D17*
X111900000Y-89615000D03*
X111900000Y-92155000D03*
%TD*%
D16*
%TO.C,P1*%
X189800000Y-110425000D03*
D17*
X189800000Y-107885000D03*
X189800000Y-105345000D03*
%TD*%
D16*
%TO.C,J3*%
X167440000Y-104620000D03*
D17*
X164900000Y-104620000D03*
X167440000Y-102080000D03*
X164900000Y-102080000D03*
X167440000Y-99540000D03*
X164900000Y-99540000D03*
X167440000Y-97000000D03*
X164900000Y-97000000D03*
X167440000Y-94460000D03*
X164900000Y-94460000D03*
%TD*%
D19*
%TO.C,D3*%
X181400000Y-105037500D03*
X181400000Y-103162500D03*
%TD*%
D20*
%TO.C,SW1*%
X155499982Y-89299968D03*
X150581700Y-89288100D03*
X146058424Y-89258898D03*
%TD*%
D16*
%TO.C,J2*%
X152780000Y-107000000D03*
D17*
X150240000Y-107000000D03*
X147700000Y-107000000D03*
X145160000Y-107000000D03*
%TD*%
D11*
%TO.C,R2*%
X124300000Y-85580000D03*
D12*
X124300000Y-93200000D03*
%TD*%
D19*
%TO.C,D6*%
X175100000Y-105037500D03*
X175100000Y-103162500D03*
%TD*%
D21*
%TO.C,D1*%
X163550000Y-81900000D03*
X163550000Y-84000000D03*
X163550000Y-86100000D03*
X168450000Y-86100000D03*
X168450000Y-84000000D03*
X168450000Y-81900000D03*
%TD*%
D11*
%TO.C,R1*%
X121100000Y-93210000D03*
D12*
X121100000Y-85590000D03*
%TD*%
D22*
%TO.C,F1*%
X147050000Y-82000000D03*
D23*
X155050000Y-82000000D03*
%TD*%
D16*
%TO.C,J4*%
X125800000Y-116500000D03*
D17*
X125800000Y-113960000D03*
X125800000Y-111420000D03*
X125800000Y-108880000D03*
%TD*%
D11*
%TO.C,R7*%
X140200000Y-93200000D03*
D12*
X140200000Y-85580000D03*
%TD*%
D11*
%TO.C,R6*%
X137000000Y-93200000D03*
D12*
X137000000Y-85580000D03*
%TD*%
D19*
%TO.C,D4*%
X179300000Y-105037500D03*
X179300000Y-103162500D03*
%TD*%
D13*
%TO.C,M1*%
X177900000Y-114800000D03*
D14*
X182980000Y-114800000D03*
%TD*%
D19*
%TO.C,D5*%
X177200000Y-105037500D03*
X177200000Y-103162500D03*
%TD*%
D11*
%TO.C,R4*%
X130700000Y-93200000D03*
D12*
X130700000Y-85580000D03*
%TD*%
D17*
%TO.C,SO2*%
X114900000Y-116580000D03*
X114900000Y-114040000D03*
X114900000Y-111500000D03*
D16*
X114900000Y-108960000D03*
%TD*%
D18*
%TO.C,U1*%
X155300000Y-103600000D03*
D12*
X152760000Y-103600000D03*
X150220000Y-103600000D03*
X147680000Y-103600000D03*
X145140000Y-103600000D03*
X142600000Y-103600000D03*
X140060000Y-103600000D03*
X137520000Y-103600000D03*
X134980000Y-103600000D03*
X132440000Y-103600000D03*
X129900000Y-103600000D03*
X127360000Y-103600000D03*
X124820000Y-103600000D03*
X122280000Y-103600000D03*
X122280000Y-95980000D03*
X124820000Y-95980000D03*
X127360000Y-95980000D03*
X129900000Y-95980000D03*
X132440000Y-95980000D03*
X134980000Y-95980000D03*
X137520000Y-95980000D03*
X140060000Y-95980000D03*
X142600000Y-95980000D03*
X145140000Y-95980000D03*
X147680000Y-95980000D03*
X150220000Y-95980000D03*
X152760000Y-95980000D03*
X155300000Y-95980000D03*
%TD*%
D13*
%TO.C,J1*%
X172740000Y-114800000D03*
D14*
X167660000Y-114800000D03*
%TD*%
D24*
%TO.C,Y1*%
X139550000Y-114900000D03*
X144430000Y-114900000D03*
%TD*%
M02*
