%TF.GenerationSoftware,KiCad,Pcbnew,7.0.7*%
%TF.CreationDate,2025-01-17T17:57:09+01:00*%
%TF.ProjectId,minisumov3,6d696e69-7375-46d6-9f76-332e6b696361,rev?*%
%TF.SameCoordinates,Original*%
%TF.FileFunction,Legend,Bot*%
%TF.FilePolarity,Positive*%
%FSLAX46Y46*%
G04 Gerber Fmt 4.6, Leading zero omitted, Abs format (unit mm)*
G04 Created by KiCad (PCBNEW 7.0.7) date 2025-01-17 17:57:09*
%MOMM*%
%LPD*%
G01*
G04 APERTURE LIST*
%ADD10C,0.150000*%
%ADD11C,0.120000*%
G04 APERTURE END LIST*
D10*
X157084819Y-99028095D02*
X157894342Y-99028095D01*
X157894342Y-99028095D02*
X157989580Y-99075714D01*
X157989580Y-99075714D02*
X158037200Y-99123333D01*
X158037200Y-99123333D02*
X158084819Y-99218571D01*
X158084819Y-99218571D02*
X158084819Y-99409047D01*
X158084819Y-99409047D02*
X158037200Y-99504285D01*
X158037200Y-99504285D02*
X157989580Y-99551904D01*
X157989580Y-99551904D02*
X157894342Y-99599523D01*
X157894342Y-99599523D02*
X157084819Y-99599523D01*
X158084819Y-100599523D02*
X158084819Y-100028095D01*
X158084819Y-100313809D02*
X157084819Y-100313809D01*
X157084819Y-100313809D02*
X157227676Y-100218571D01*
X157227676Y-100218571D02*
X157322914Y-100123333D01*
X157322914Y-100123333D02*
X157370533Y-100028095D01*
X170533333Y-109174819D02*
X170533333Y-109889104D01*
X170533333Y-109889104D02*
X170580952Y-110031961D01*
X170580952Y-110031961D02*
X170676190Y-110127200D01*
X170676190Y-110127200D02*
X170819047Y-110174819D01*
X170819047Y-110174819D02*
X170914285Y-110174819D01*
X169533333Y-110174819D02*
X170104761Y-110174819D01*
X169819047Y-110174819D02*
X169819047Y-109174819D01*
X169819047Y-109174819D02*
X169914285Y-109317676D01*
X169914285Y-109317676D02*
X170009523Y-109412914D01*
X170009523Y-109412914D02*
X170104761Y-109460533D01*
X142576190Y-118178628D02*
X142576190Y-118654819D01*
X142909523Y-117654819D02*
X142576190Y-118178628D01*
X142576190Y-118178628D02*
X142242857Y-117654819D01*
X141385714Y-118654819D02*
X141957142Y-118654819D01*
X141671428Y-118654819D02*
X141671428Y-117654819D01*
X141671428Y-117654819D02*
X141766666Y-117797676D01*
X141766666Y-117797676D02*
X141861904Y-117892914D01*
X141861904Y-117892914D02*
X141957142Y-117940533D01*
D11*
%TO.C,U1*%
X120890000Y-104930000D02*
X120890000Y-94650000D01*
X156690000Y-104930000D02*
X120890000Y-104930000D01*
X120950000Y-102440000D02*
X120950000Y-97140000D01*
X156630000Y-102440000D02*
X120950000Y-102440000D01*
X156630000Y-100790000D02*
X156630000Y-102440000D01*
X120950000Y-97140000D02*
X156630000Y-97140000D01*
X156630000Y-97140000D02*
X156630000Y-98790000D01*
X120890000Y-94650000D02*
X156690000Y-94650000D01*
X156690000Y-94650000D02*
X156690000Y-104930000D01*
X156630000Y-98790000D02*
G75*
G03*
X156630000Y-100790000I0J-1000000D01*
G01*
%TO.C,J1*%
X175280000Y-118610000D02*
X165120000Y-118610000D01*
X175280000Y-110990000D02*
X175280000Y-118610000D01*
X165120000Y-118610000D02*
X165120000Y-110990000D01*
X165120000Y-117340000D02*
X175280000Y-117340000D01*
X165120000Y-110990000D02*
X175280000Y-110990000D01*
%TO.C,Y1*%
X138790000Y-112375000D02*
X145190000Y-112375000D01*
X138790000Y-117425000D02*
X145190000Y-117425000D01*
X138790000Y-112375000D02*
G75*
G03*
X138790000Y-117425000I0J-2525000D01*
G01*
X145190000Y-117425000D02*
G75*
G03*
X145190000Y-112375000I0J2525000D01*
G01*
%TD*%
M02*
