%TF.GenerationSoftware,KiCad,Pcbnew,7.0.7*%
%TF.CreationDate,2025-01-17T17:57:09+01:00*%
%TF.ProjectId,minisumov3,6d696e69-7375-46d6-9f76-332e6b696361,rev?*%
%TF.SameCoordinates,Original*%
%TF.FileFunction,Legend,Top*%
%TF.FilePolarity,Positive*%
%FSLAX46Y46*%
G04 Gerber Fmt 4.6, Leading zero omitted, Abs format (unit mm)*
G04 Created by KiCad (PCBNEW 7.0.7) date 2025-01-17 17:57:09*
%MOMM*%
%LPD*%
G01*
G04 APERTURE LIST*
%ADD10C,0.187500*%
%ADD11C,0.125000*%
%ADD12C,0.150000*%
%ADD13C,0.100000*%
%ADD14C,0.120000*%
G04 APERTURE END LIST*
D10*
X172990250Y-113019502D02*
X172990250Y-111876645D01*
X173561678Y-112448073D02*
X172418821Y-112448073D01*
X172775964Y-110662359D02*
X172847392Y-110448073D01*
X172847392Y-110448073D02*
X172918821Y-110376644D01*
X172918821Y-110376644D02*
X173061678Y-110305216D01*
X173061678Y-110305216D02*
X173275964Y-110305216D01*
X173275964Y-110305216D02*
X173418821Y-110376644D01*
X173418821Y-110376644D02*
X173490250Y-110448073D01*
X173490250Y-110448073D02*
X173561678Y-110590930D01*
X173561678Y-110590930D02*
X173561678Y-111162359D01*
X173561678Y-111162359D02*
X172061678Y-111162359D01*
X172061678Y-111162359D02*
X172061678Y-110662359D01*
X172061678Y-110662359D02*
X172133107Y-110519502D01*
X172133107Y-110519502D02*
X172204535Y-110448073D01*
X172204535Y-110448073D02*
X172347392Y-110376644D01*
X172347392Y-110376644D02*
X172490250Y-110376644D01*
X172490250Y-110376644D02*
X172633107Y-110448073D01*
X172633107Y-110448073D02*
X172704535Y-110519502D01*
X172704535Y-110519502D02*
X172775964Y-110662359D01*
X172775964Y-110662359D02*
X172775964Y-111162359D01*
X173133107Y-109733787D02*
X173133107Y-109019502D01*
X173561678Y-109876644D02*
X172061678Y-109376644D01*
X172061678Y-109376644D02*
X173561678Y-108876644D01*
X172061678Y-108590930D02*
X172061678Y-107733788D01*
X173561678Y-108162359D02*
X172061678Y-108162359D01*
X172061678Y-107448073D02*
X172061678Y-106590931D01*
X173561678Y-107019502D02*
X172061678Y-107019502D01*
X166933107Y-111333787D02*
X166861678Y-111476645D01*
X166861678Y-111476645D02*
X166861678Y-111690930D01*
X166861678Y-111690930D02*
X166933107Y-111905216D01*
X166933107Y-111905216D02*
X167075964Y-112048073D01*
X167075964Y-112048073D02*
X167218821Y-112119502D01*
X167218821Y-112119502D02*
X167504535Y-112190930D01*
X167504535Y-112190930D02*
X167718821Y-112190930D01*
X167718821Y-112190930D02*
X168004535Y-112119502D01*
X168004535Y-112119502D02*
X168147392Y-112048073D01*
X168147392Y-112048073D02*
X168290250Y-111905216D01*
X168290250Y-111905216D02*
X168361678Y-111690930D01*
X168361678Y-111690930D02*
X168361678Y-111548073D01*
X168361678Y-111548073D02*
X168290250Y-111333787D01*
X168290250Y-111333787D02*
X168218821Y-111262359D01*
X168218821Y-111262359D02*
X167718821Y-111262359D01*
X167718821Y-111262359D02*
X167718821Y-111548073D01*
X168361678Y-110619502D02*
X166861678Y-110619502D01*
X166861678Y-110619502D02*
X168361678Y-109762359D01*
X168361678Y-109762359D02*
X166861678Y-109762359D01*
X168361678Y-109048073D02*
X166861678Y-109048073D01*
X166861678Y-109048073D02*
X166861678Y-108690930D01*
X166861678Y-108690930D02*
X166933107Y-108476644D01*
X166933107Y-108476644D02*
X167075964Y-108333787D01*
X167075964Y-108333787D02*
X167218821Y-108262358D01*
X167218821Y-108262358D02*
X167504535Y-108190930D01*
X167504535Y-108190930D02*
X167718821Y-108190930D01*
X167718821Y-108190930D02*
X168004535Y-108262358D01*
X168004535Y-108262358D02*
X168147392Y-108333787D01*
X168147392Y-108333787D02*
X168290250Y-108476644D01*
X168290250Y-108476644D02*
X168361678Y-108690930D01*
X168361678Y-108690930D02*
X168361678Y-109048073D01*
D11*
X132793500Y-84627287D02*
X132841119Y-84484430D01*
X132841119Y-84484430D02*
X132841119Y-84246335D01*
X132841119Y-84246335D02*
X132793500Y-84151097D01*
X132793500Y-84151097D02*
X132745880Y-84103478D01*
X132745880Y-84103478D02*
X132650642Y-84055859D01*
X132650642Y-84055859D02*
X132555404Y-84055859D01*
X132555404Y-84055859D02*
X132460166Y-84103478D01*
X132460166Y-84103478D02*
X132412547Y-84151097D01*
X132412547Y-84151097D02*
X132364928Y-84246335D01*
X132364928Y-84246335D02*
X132317309Y-84436811D01*
X132317309Y-84436811D02*
X132269690Y-84532049D01*
X132269690Y-84532049D02*
X132222071Y-84579668D01*
X132222071Y-84579668D02*
X132126833Y-84627287D01*
X132126833Y-84627287D02*
X132031595Y-84627287D01*
X132031595Y-84627287D02*
X131936357Y-84579668D01*
X131936357Y-84579668D02*
X131888738Y-84532049D01*
X131888738Y-84532049D02*
X131841119Y-84436811D01*
X131841119Y-84436811D02*
X131841119Y-84198716D01*
X131841119Y-84198716D02*
X131888738Y-84055859D01*
X132841119Y-83627287D02*
X131841119Y-83627287D01*
X131841119Y-83627287D02*
X131841119Y-83389192D01*
X131841119Y-83389192D02*
X131888738Y-83246335D01*
X131888738Y-83246335D02*
X131983976Y-83151097D01*
X131983976Y-83151097D02*
X132079214Y-83103478D01*
X132079214Y-83103478D02*
X132269690Y-83055859D01*
X132269690Y-83055859D02*
X132412547Y-83055859D01*
X132412547Y-83055859D02*
X132603023Y-83103478D01*
X132603023Y-83103478D02*
X132698261Y-83151097D01*
X132698261Y-83151097D02*
X132793500Y-83246335D01*
X132793500Y-83246335D02*
X132841119Y-83389192D01*
X132841119Y-83389192D02*
X132841119Y-83627287D01*
X132555404Y-82674906D02*
X132555404Y-82198716D01*
X132841119Y-82770144D02*
X131841119Y-82436811D01*
X131841119Y-82436811D02*
X132841119Y-82103478D01*
X130393500Y-84527287D02*
X130441119Y-84384430D01*
X130441119Y-84384430D02*
X130441119Y-84146335D01*
X130441119Y-84146335D02*
X130393500Y-84051097D01*
X130393500Y-84051097D02*
X130345880Y-84003478D01*
X130345880Y-84003478D02*
X130250642Y-83955859D01*
X130250642Y-83955859D02*
X130155404Y-83955859D01*
X130155404Y-83955859D02*
X130060166Y-84003478D01*
X130060166Y-84003478D02*
X130012547Y-84051097D01*
X130012547Y-84051097D02*
X129964928Y-84146335D01*
X129964928Y-84146335D02*
X129917309Y-84336811D01*
X129917309Y-84336811D02*
X129869690Y-84432049D01*
X129869690Y-84432049D02*
X129822071Y-84479668D01*
X129822071Y-84479668D02*
X129726833Y-84527287D01*
X129726833Y-84527287D02*
X129631595Y-84527287D01*
X129631595Y-84527287D02*
X129536357Y-84479668D01*
X129536357Y-84479668D02*
X129488738Y-84432049D01*
X129488738Y-84432049D02*
X129441119Y-84336811D01*
X129441119Y-84336811D02*
X129441119Y-84098716D01*
X129441119Y-84098716D02*
X129488738Y-83955859D01*
X130345880Y-82955859D02*
X130393500Y-83003478D01*
X130393500Y-83003478D02*
X130441119Y-83146335D01*
X130441119Y-83146335D02*
X130441119Y-83241573D01*
X130441119Y-83241573D02*
X130393500Y-83384430D01*
X130393500Y-83384430D02*
X130298261Y-83479668D01*
X130298261Y-83479668D02*
X130203023Y-83527287D01*
X130203023Y-83527287D02*
X130012547Y-83574906D01*
X130012547Y-83574906D02*
X129869690Y-83574906D01*
X129869690Y-83574906D02*
X129679214Y-83527287D01*
X129679214Y-83527287D02*
X129583976Y-83479668D01*
X129583976Y-83479668D02*
X129488738Y-83384430D01*
X129488738Y-83384430D02*
X129441119Y-83241573D01*
X129441119Y-83241573D02*
X129441119Y-83146335D01*
X129441119Y-83146335D02*
X129488738Y-83003478D01*
X129488738Y-83003478D02*
X129536357Y-82955859D01*
X130441119Y-82051097D02*
X130441119Y-82527287D01*
X130441119Y-82527287D02*
X129441119Y-82527287D01*
X124188738Y-84155859D02*
X124141119Y-84251097D01*
X124141119Y-84251097D02*
X124141119Y-84393954D01*
X124141119Y-84393954D02*
X124188738Y-84536811D01*
X124188738Y-84536811D02*
X124283976Y-84632049D01*
X124283976Y-84632049D02*
X124379214Y-84679668D01*
X124379214Y-84679668D02*
X124569690Y-84727287D01*
X124569690Y-84727287D02*
X124712547Y-84727287D01*
X124712547Y-84727287D02*
X124903023Y-84679668D01*
X124903023Y-84679668D02*
X124998261Y-84632049D01*
X124998261Y-84632049D02*
X125093500Y-84536811D01*
X125093500Y-84536811D02*
X125141119Y-84393954D01*
X125141119Y-84393954D02*
X125141119Y-84298716D01*
X125141119Y-84298716D02*
X125093500Y-84155859D01*
X125093500Y-84155859D02*
X125045880Y-84108240D01*
X125045880Y-84108240D02*
X124712547Y-84108240D01*
X124712547Y-84108240D02*
X124712547Y-84298716D01*
X125141119Y-83679668D02*
X124141119Y-83679668D01*
X124141119Y-83679668D02*
X125141119Y-83108240D01*
X125141119Y-83108240D02*
X124141119Y-83108240D01*
X125141119Y-82632049D02*
X124141119Y-82632049D01*
X124141119Y-82632049D02*
X124141119Y-82393954D01*
X124141119Y-82393954D02*
X124188738Y-82251097D01*
X124188738Y-82251097D02*
X124283976Y-82155859D01*
X124283976Y-82155859D02*
X124379214Y-82108240D01*
X124379214Y-82108240D02*
X124569690Y-82060621D01*
X124569690Y-82060621D02*
X124712547Y-82060621D01*
X124712547Y-82060621D02*
X124903023Y-82108240D01*
X124903023Y-82108240D02*
X124998261Y-82155859D01*
X124998261Y-82155859D02*
X125093500Y-82251097D01*
X125093500Y-82251097D02*
X125141119Y-82393954D01*
X125141119Y-82393954D02*
X125141119Y-82632049D01*
X126941119Y-83203478D02*
X126941119Y-83679668D01*
X126941119Y-83679668D02*
X127417309Y-83727287D01*
X127417309Y-83727287D02*
X127369690Y-83679668D01*
X127369690Y-83679668D02*
X127322071Y-83584430D01*
X127322071Y-83584430D02*
X127322071Y-83346335D01*
X127322071Y-83346335D02*
X127369690Y-83251097D01*
X127369690Y-83251097D02*
X127417309Y-83203478D01*
X127417309Y-83203478D02*
X127512547Y-83155859D01*
X127512547Y-83155859D02*
X127750642Y-83155859D01*
X127750642Y-83155859D02*
X127845880Y-83203478D01*
X127845880Y-83203478D02*
X127893500Y-83251097D01*
X127893500Y-83251097D02*
X127941119Y-83346335D01*
X127941119Y-83346335D02*
X127941119Y-83584430D01*
X127941119Y-83584430D02*
X127893500Y-83679668D01*
X127893500Y-83679668D02*
X127845880Y-83727287D01*
X126941119Y-82870144D02*
X127941119Y-82536811D01*
X127941119Y-82536811D02*
X126941119Y-82203478D01*
X191420331Y-110760166D02*
X192182236Y-110760166D01*
X191801283Y-111141119D02*
X191801283Y-110379214D01*
X192991759Y-110617309D02*
X193134616Y-110664928D01*
X193134616Y-110664928D02*
X193182235Y-110712547D01*
X193182235Y-110712547D02*
X193229854Y-110807785D01*
X193229854Y-110807785D02*
X193229854Y-110950642D01*
X193229854Y-110950642D02*
X193182235Y-111045880D01*
X193182235Y-111045880D02*
X193134616Y-111093500D01*
X193134616Y-111093500D02*
X193039378Y-111141119D01*
X193039378Y-111141119D02*
X192658426Y-111141119D01*
X192658426Y-111141119D02*
X192658426Y-110141119D01*
X192658426Y-110141119D02*
X192991759Y-110141119D01*
X192991759Y-110141119D02*
X193086997Y-110188738D01*
X193086997Y-110188738D02*
X193134616Y-110236357D01*
X193134616Y-110236357D02*
X193182235Y-110331595D01*
X193182235Y-110331595D02*
X193182235Y-110426833D01*
X193182235Y-110426833D02*
X193134616Y-110522071D01*
X193134616Y-110522071D02*
X193086997Y-110569690D01*
X193086997Y-110569690D02*
X192991759Y-110617309D01*
X192991759Y-110617309D02*
X192658426Y-110617309D01*
X193610807Y-110855404D02*
X194086997Y-110855404D01*
X193515569Y-111141119D02*
X193848902Y-110141119D01*
X193848902Y-110141119D02*
X194182235Y-111141119D01*
X194372712Y-110141119D02*
X194944140Y-110141119D01*
X194658426Y-111141119D02*
X194658426Y-110141119D01*
X195134617Y-110141119D02*
X195706045Y-110141119D01*
X195420331Y-111141119D02*
X195420331Y-110141119D01*
X191944140Y-107488738D02*
X191848902Y-107441119D01*
X191848902Y-107441119D02*
X191706045Y-107441119D01*
X191706045Y-107441119D02*
X191563188Y-107488738D01*
X191563188Y-107488738D02*
X191467950Y-107583976D01*
X191467950Y-107583976D02*
X191420331Y-107679214D01*
X191420331Y-107679214D02*
X191372712Y-107869690D01*
X191372712Y-107869690D02*
X191372712Y-108012547D01*
X191372712Y-108012547D02*
X191420331Y-108203023D01*
X191420331Y-108203023D02*
X191467950Y-108298261D01*
X191467950Y-108298261D02*
X191563188Y-108393500D01*
X191563188Y-108393500D02*
X191706045Y-108441119D01*
X191706045Y-108441119D02*
X191801283Y-108441119D01*
X191801283Y-108441119D02*
X191944140Y-108393500D01*
X191944140Y-108393500D02*
X191991759Y-108345880D01*
X191991759Y-108345880D02*
X191991759Y-108012547D01*
X191991759Y-108012547D02*
X191801283Y-108012547D01*
X192420331Y-108441119D02*
X192420331Y-107441119D01*
X192420331Y-107441119D02*
X192991759Y-108441119D01*
X192991759Y-108441119D02*
X192991759Y-107441119D01*
X193467950Y-108441119D02*
X193467950Y-107441119D01*
X193467950Y-107441119D02*
X193706045Y-107441119D01*
X193706045Y-107441119D02*
X193848902Y-107488738D01*
X193848902Y-107488738D02*
X193944140Y-107583976D01*
X193944140Y-107583976D02*
X193991759Y-107679214D01*
X193991759Y-107679214D02*
X194039378Y-107869690D01*
X194039378Y-107869690D02*
X194039378Y-108012547D01*
X194039378Y-108012547D02*
X193991759Y-108203023D01*
X193991759Y-108203023D02*
X193944140Y-108298261D01*
X193944140Y-108298261D02*
X193848902Y-108393500D01*
X193848902Y-108393500D02*
X193706045Y-108441119D01*
X193706045Y-108441119D02*
X193467950Y-108441119D01*
X191896521Y-104941119D02*
X191420331Y-104941119D01*
X191420331Y-104941119D02*
X191372712Y-105417309D01*
X191372712Y-105417309D02*
X191420331Y-105369690D01*
X191420331Y-105369690D02*
X191515569Y-105322071D01*
X191515569Y-105322071D02*
X191753664Y-105322071D01*
X191753664Y-105322071D02*
X191848902Y-105369690D01*
X191848902Y-105369690D02*
X191896521Y-105417309D01*
X191896521Y-105417309D02*
X191944140Y-105512547D01*
X191944140Y-105512547D02*
X191944140Y-105750642D01*
X191944140Y-105750642D02*
X191896521Y-105845880D01*
X191896521Y-105845880D02*
X191848902Y-105893500D01*
X191848902Y-105893500D02*
X191753664Y-105941119D01*
X191753664Y-105941119D02*
X191515569Y-105941119D01*
X191515569Y-105941119D02*
X191420331Y-105893500D01*
X191420331Y-105893500D02*
X191372712Y-105845880D01*
X192229855Y-104941119D02*
X192563188Y-105941119D01*
X192563188Y-105941119D02*
X192896521Y-104941119D01*
X149828880Y-112291759D02*
X150305071Y-111958426D01*
X149828880Y-111720331D02*
X150828880Y-111720331D01*
X150828880Y-111720331D02*
X150828880Y-112101283D01*
X150828880Y-112101283D02*
X150781261Y-112196521D01*
X150781261Y-112196521D02*
X150733642Y-112244140D01*
X150733642Y-112244140D02*
X150638404Y-112291759D01*
X150638404Y-112291759D02*
X150495547Y-112291759D01*
X150495547Y-112291759D02*
X150400309Y-112244140D01*
X150400309Y-112244140D02*
X150352690Y-112196521D01*
X150352690Y-112196521D02*
X150305071Y-112101283D01*
X150305071Y-112101283D02*
X150305071Y-111720331D01*
X149828880Y-112720331D02*
X150495547Y-112720331D01*
X150828880Y-112720331D02*
X150781261Y-112672712D01*
X150781261Y-112672712D02*
X150733642Y-112720331D01*
X150733642Y-112720331D02*
X150781261Y-112767950D01*
X150781261Y-112767950D02*
X150828880Y-112720331D01*
X150828880Y-112720331D02*
X150733642Y-112720331D01*
X150495547Y-113625092D02*
X149686023Y-113625092D01*
X149686023Y-113625092D02*
X149590785Y-113577473D01*
X149590785Y-113577473D02*
X149543166Y-113529854D01*
X149543166Y-113529854D02*
X149495547Y-113434616D01*
X149495547Y-113434616D02*
X149495547Y-113291759D01*
X149495547Y-113291759D02*
X149543166Y-113196521D01*
X149876500Y-113625092D02*
X149828880Y-113529854D01*
X149828880Y-113529854D02*
X149828880Y-113339378D01*
X149828880Y-113339378D02*
X149876500Y-113244140D01*
X149876500Y-113244140D02*
X149924119Y-113196521D01*
X149924119Y-113196521D02*
X150019357Y-113148902D01*
X150019357Y-113148902D02*
X150305071Y-113148902D01*
X150305071Y-113148902D02*
X150400309Y-113196521D01*
X150400309Y-113196521D02*
X150447928Y-113244140D01*
X150447928Y-113244140D02*
X150495547Y-113339378D01*
X150495547Y-113339378D02*
X150495547Y-113529854D01*
X150495547Y-113529854D02*
X150447928Y-113625092D01*
X149828880Y-114101283D02*
X150828880Y-114101283D01*
X149828880Y-114529854D02*
X150352690Y-114529854D01*
X150352690Y-114529854D02*
X150447928Y-114482235D01*
X150447928Y-114482235D02*
X150495547Y-114386997D01*
X150495547Y-114386997D02*
X150495547Y-114244140D01*
X150495547Y-114244140D02*
X150447928Y-114148902D01*
X150447928Y-114148902D02*
X150400309Y-114101283D01*
X150495547Y-114863188D02*
X150495547Y-115244140D01*
X150828880Y-115006045D02*
X149971738Y-115006045D01*
X149971738Y-115006045D02*
X149876500Y-115053664D01*
X149876500Y-115053664D02*
X149828880Y-115148902D01*
X149828880Y-115148902D02*
X149828880Y-115244140D01*
X152428880Y-112296521D02*
X152428880Y-111820331D01*
X152428880Y-111820331D02*
X153428880Y-111820331D01*
X152476500Y-113010807D02*
X152428880Y-112915569D01*
X152428880Y-112915569D02*
X152428880Y-112725093D01*
X152428880Y-112725093D02*
X152476500Y-112629855D01*
X152476500Y-112629855D02*
X152571738Y-112582236D01*
X152571738Y-112582236D02*
X152952690Y-112582236D01*
X152952690Y-112582236D02*
X153047928Y-112629855D01*
X153047928Y-112629855D02*
X153095547Y-112725093D01*
X153095547Y-112725093D02*
X153095547Y-112915569D01*
X153095547Y-112915569D02*
X153047928Y-113010807D01*
X153047928Y-113010807D02*
X152952690Y-113058426D01*
X152952690Y-113058426D02*
X152857452Y-113058426D01*
X152857452Y-113058426D02*
X152762214Y-112582236D01*
X153095547Y-113344141D02*
X153095547Y-113725093D01*
X152428880Y-113486998D02*
X153286023Y-113486998D01*
X153286023Y-113486998D02*
X153381261Y-113534617D01*
X153381261Y-113534617D02*
X153428880Y-113629855D01*
X153428880Y-113629855D02*
X153428880Y-113725093D01*
X153095547Y-113915570D02*
X153095547Y-114296522D01*
X153428880Y-114058427D02*
X152571738Y-114058427D01*
X152571738Y-114058427D02*
X152476500Y-114106046D01*
X152476500Y-114106046D02*
X152428880Y-114201284D01*
X152428880Y-114201284D02*
X152428880Y-114296522D01*
X127620331Y-117041119D02*
X127620331Y-116041119D01*
X128191759Y-117041119D02*
X127763188Y-116469690D01*
X128191759Y-116041119D02*
X127620331Y-116612547D01*
X128620331Y-117041119D02*
X128620331Y-116374452D01*
X128620331Y-116041119D02*
X128572712Y-116088738D01*
X128572712Y-116088738D02*
X128620331Y-116136357D01*
X128620331Y-116136357D02*
X128667950Y-116088738D01*
X128667950Y-116088738D02*
X128620331Y-116041119D01*
X128620331Y-116041119D02*
X128620331Y-116136357D01*
X129239378Y-117041119D02*
X129144140Y-116993500D01*
X129144140Y-116993500D02*
X129096521Y-116898261D01*
X129096521Y-116898261D02*
X129096521Y-116041119D01*
X129763188Y-117041119D02*
X129667950Y-116993500D01*
X129667950Y-116993500D02*
X129620331Y-116898261D01*
X129620331Y-116898261D02*
X129620331Y-116041119D01*
X130858427Y-116993500D02*
X131001284Y-117041119D01*
X131001284Y-117041119D02*
X131239379Y-117041119D01*
X131239379Y-117041119D02*
X131334617Y-116993500D01*
X131334617Y-116993500D02*
X131382236Y-116945880D01*
X131382236Y-116945880D02*
X131429855Y-116850642D01*
X131429855Y-116850642D02*
X131429855Y-116755404D01*
X131429855Y-116755404D02*
X131382236Y-116660166D01*
X131382236Y-116660166D02*
X131334617Y-116612547D01*
X131334617Y-116612547D02*
X131239379Y-116564928D01*
X131239379Y-116564928D02*
X131048903Y-116517309D01*
X131048903Y-116517309D02*
X130953665Y-116469690D01*
X130953665Y-116469690D02*
X130906046Y-116422071D01*
X130906046Y-116422071D02*
X130858427Y-116326833D01*
X130858427Y-116326833D02*
X130858427Y-116231595D01*
X130858427Y-116231595D02*
X130906046Y-116136357D01*
X130906046Y-116136357D02*
X130953665Y-116088738D01*
X130953665Y-116088738D02*
X131048903Y-116041119D01*
X131048903Y-116041119D02*
X131286998Y-116041119D01*
X131286998Y-116041119D02*
X131429855Y-116088738D01*
X131763189Y-116374452D02*
X131953665Y-117041119D01*
X131953665Y-117041119D02*
X132144141Y-116564928D01*
X132144141Y-116564928D02*
X132334617Y-117041119D01*
X132334617Y-117041119D02*
X132525093Y-116374452D01*
X132906046Y-117041119D02*
X132906046Y-116374452D01*
X132906046Y-116041119D02*
X132858427Y-116088738D01*
X132858427Y-116088738D02*
X132906046Y-116136357D01*
X132906046Y-116136357D02*
X132953665Y-116088738D01*
X132953665Y-116088738D02*
X132906046Y-116041119D01*
X132906046Y-116041119D02*
X132906046Y-116136357D01*
X133239379Y-116374452D02*
X133620331Y-116374452D01*
X133382236Y-116041119D02*
X133382236Y-116898261D01*
X133382236Y-116898261D02*
X133429855Y-116993500D01*
X133429855Y-116993500D02*
X133525093Y-117041119D01*
X133525093Y-117041119D02*
X133620331Y-117041119D01*
X134382236Y-116993500D02*
X134286998Y-117041119D01*
X134286998Y-117041119D02*
X134096522Y-117041119D01*
X134096522Y-117041119D02*
X134001284Y-116993500D01*
X134001284Y-116993500D02*
X133953665Y-116945880D01*
X133953665Y-116945880D02*
X133906046Y-116850642D01*
X133906046Y-116850642D02*
X133906046Y-116564928D01*
X133906046Y-116564928D02*
X133953665Y-116469690D01*
X133953665Y-116469690D02*
X134001284Y-116422071D01*
X134001284Y-116422071D02*
X134096522Y-116374452D01*
X134096522Y-116374452D02*
X134286998Y-116374452D01*
X134286998Y-116374452D02*
X134382236Y-116422071D01*
X134810808Y-117041119D02*
X134810808Y-116041119D01*
X135239379Y-117041119D02*
X135239379Y-116517309D01*
X135239379Y-116517309D02*
X135191760Y-116422071D01*
X135191760Y-116422071D02*
X135096522Y-116374452D01*
X135096522Y-116374452D02*
X134953665Y-116374452D01*
X134953665Y-116374452D02*
X134858427Y-116422071D01*
X134858427Y-116422071D02*
X134810808Y-116469690D01*
X127572712Y-114393500D02*
X127715569Y-114441119D01*
X127715569Y-114441119D02*
X127953664Y-114441119D01*
X127953664Y-114441119D02*
X128048902Y-114393500D01*
X128048902Y-114393500D02*
X128096521Y-114345880D01*
X128096521Y-114345880D02*
X128144140Y-114250642D01*
X128144140Y-114250642D02*
X128144140Y-114155404D01*
X128144140Y-114155404D02*
X128096521Y-114060166D01*
X128096521Y-114060166D02*
X128048902Y-114012547D01*
X128048902Y-114012547D02*
X127953664Y-113964928D01*
X127953664Y-113964928D02*
X127763188Y-113917309D01*
X127763188Y-113917309D02*
X127667950Y-113869690D01*
X127667950Y-113869690D02*
X127620331Y-113822071D01*
X127620331Y-113822071D02*
X127572712Y-113726833D01*
X127572712Y-113726833D02*
X127572712Y-113631595D01*
X127572712Y-113631595D02*
X127620331Y-113536357D01*
X127620331Y-113536357D02*
X127667950Y-113488738D01*
X127667950Y-113488738D02*
X127763188Y-113441119D01*
X127763188Y-113441119D02*
X128001283Y-113441119D01*
X128001283Y-113441119D02*
X128144140Y-113488738D01*
X128429855Y-113441119D02*
X129001283Y-113441119D01*
X128715569Y-114441119D02*
X128715569Y-113441119D01*
X129286998Y-114155404D02*
X129763188Y-114155404D01*
X129191760Y-114441119D02*
X129525093Y-113441119D01*
X129525093Y-113441119D02*
X129858426Y-114441119D01*
X130763188Y-114441119D02*
X130429855Y-113964928D01*
X130191760Y-114441119D02*
X130191760Y-113441119D01*
X130191760Y-113441119D02*
X130572712Y-113441119D01*
X130572712Y-113441119D02*
X130667950Y-113488738D01*
X130667950Y-113488738D02*
X130715569Y-113536357D01*
X130715569Y-113536357D02*
X130763188Y-113631595D01*
X130763188Y-113631595D02*
X130763188Y-113774452D01*
X130763188Y-113774452D02*
X130715569Y-113869690D01*
X130715569Y-113869690D02*
X130667950Y-113917309D01*
X130667950Y-113917309D02*
X130572712Y-113964928D01*
X130572712Y-113964928D02*
X130191760Y-113964928D01*
X131048903Y-113441119D02*
X131620331Y-113441119D01*
X131334617Y-114441119D02*
X131334617Y-113441119D01*
X128144140Y-110988738D02*
X128048902Y-110941119D01*
X128048902Y-110941119D02*
X127906045Y-110941119D01*
X127906045Y-110941119D02*
X127763188Y-110988738D01*
X127763188Y-110988738D02*
X127667950Y-111083976D01*
X127667950Y-111083976D02*
X127620331Y-111179214D01*
X127620331Y-111179214D02*
X127572712Y-111369690D01*
X127572712Y-111369690D02*
X127572712Y-111512547D01*
X127572712Y-111512547D02*
X127620331Y-111703023D01*
X127620331Y-111703023D02*
X127667950Y-111798261D01*
X127667950Y-111798261D02*
X127763188Y-111893500D01*
X127763188Y-111893500D02*
X127906045Y-111941119D01*
X127906045Y-111941119D02*
X128001283Y-111941119D01*
X128001283Y-111941119D02*
X128144140Y-111893500D01*
X128144140Y-111893500D02*
X128191759Y-111845880D01*
X128191759Y-111845880D02*
X128191759Y-111512547D01*
X128191759Y-111512547D02*
X128001283Y-111512547D01*
X128620331Y-111941119D02*
X128620331Y-110941119D01*
X128620331Y-110941119D02*
X129191759Y-111941119D01*
X129191759Y-111941119D02*
X129191759Y-110941119D01*
X129667950Y-111941119D02*
X129667950Y-110941119D01*
X129667950Y-110941119D02*
X129906045Y-110941119D01*
X129906045Y-110941119D02*
X130048902Y-110988738D01*
X130048902Y-110988738D02*
X130144140Y-111083976D01*
X130144140Y-111083976D02*
X130191759Y-111179214D01*
X130191759Y-111179214D02*
X130239378Y-111369690D01*
X130239378Y-111369690D02*
X130239378Y-111512547D01*
X130239378Y-111512547D02*
X130191759Y-111703023D01*
X130191759Y-111703023D02*
X130144140Y-111798261D01*
X130144140Y-111798261D02*
X130048902Y-111893500D01*
X130048902Y-111893500D02*
X129906045Y-111941119D01*
X129906045Y-111941119D02*
X129667950Y-111941119D01*
X128196521Y-108341119D02*
X127720331Y-108341119D01*
X127720331Y-108341119D02*
X127672712Y-108817309D01*
X127672712Y-108817309D02*
X127720331Y-108769690D01*
X127720331Y-108769690D02*
X127815569Y-108722071D01*
X127815569Y-108722071D02*
X128053664Y-108722071D01*
X128053664Y-108722071D02*
X128148902Y-108769690D01*
X128148902Y-108769690D02*
X128196521Y-108817309D01*
X128196521Y-108817309D02*
X128244140Y-108912547D01*
X128244140Y-108912547D02*
X128244140Y-109150642D01*
X128244140Y-109150642D02*
X128196521Y-109245880D01*
X128196521Y-109245880D02*
X128148902Y-109293500D01*
X128148902Y-109293500D02*
X128053664Y-109341119D01*
X128053664Y-109341119D02*
X127815569Y-109341119D01*
X127815569Y-109341119D02*
X127720331Y-109293500D01*
X127720331Y-109293500D02*
X127672712Y-109245880D01*
X128529855Y-108341119D02*
X128863188Y-109341119D01*
X128863188Y-109341119D02*
X129196521Y-108341119D01*
X117044140Y-116188738D02*
X116948902Y-116141119D01*
X116948902Y-116141119D02*
X116806045Y-116141119D01*
X116806045Y-116141119D02*
X116663188Y-116188738D01*
X116663188Y-116188738D02*
X116567950Y-116283976D01*
X116567950Y-116283976D02*
X116520331Y-116379214D01*
X116520331Y-116379214D02*
X116472712Y-116569690D01*
X116472712Y-116569690D02*
X116472712Y-116712547D01*
X116472712Y-116712547D02*
X116520331Y-116903023D01*
X116520331Y-116903023D02*
X116567950Y-116998261D01*
X116567950Y-116998261D02*
X116663188Y-117093500D01*
X116663188Y-117093500D02*
X116806045Y-117141119D01*
X116806045Y-117141119D02*
X116901283Y-117141119D01*
X116901283Y-117141119D02*
X117044140Y-117093500D01*
X117044140Y-117093500D02*
X117091759Y-117045880D01*
X117091759Y-117045880D02*
X117091759Y-116712547D01*
X117091759Y-116712547D02*
X116901283Y-116712547D01*
X117520331Y-117141119D02*
X117520331Y-116141119D01*
X117520331Y-116141119D02*
X118091759Y-117141119D01*
X118091759Y-117141119D02*
X118091759Y-116141119D01*
X118567950Y-117141119D02*
X118567950Y-116141119D01*
X118567950Y-116141119D02*
X118806045Y-116141119D01*
X118806045Y-116141119D02*
X118948902Y-116188738D01*
X118948902Y-116188738D02*
X119044140Y-116283976D01*
X119044140Y-116283976D02*
X119091759Y-116379214D01*
X119091759Y-116379214D02*
X119139378Y-116569690D01*
X119139378Y-116569690D02*
X119139378Y-116712547D01*
X119139378Y-116712547D02*
X119091759Y-116903023D01*
X119091759Y-116903023D02*
X119044140Y-116998261D01*
X119044140Y-116998261D02*
X118948902Y-117093500D01*
X118948902Y-117093500D02*
X118806045Y-117141119D01*
X118806045Y-117141119D02*
X118567950Y-117141119D01*
X117096521Y-113341119D02*
X116620331Y-113341119D01*
X116620331Y-113341119D02*
X116572712Y-113817309D01*
X116572712Y-113817309D02*
X116620331Y-113769690D01*
X116620331Y-113769690D02*
X116715569Y-113722071D01*
X116715569Y-113722071D02*
X116953664Y-113722071D01*
X116953664Y-113722071D02*
X117048902Y-113769690D01*
X117048902Y-113769690D02*
X117096521Y-113817309D01*
X117096521Y-113817309D02*
X117144140Y-113912547D01*
X117144140Y-113912547D02*
X117144140Y-114150642D01*
X117144140Y-114150642D02*
X117096521Y-114245880D01*
X117096521Y-114245880D02*
X117048902Y-114293500D01*
X117048902Y-114293500D02*
X116953664Y-114341119D01*
X116953664Y-114341119D02*
X116715569Y-114341119D01*
X116715569Y-114341119D02*
X116620331Y-114293500D01*
X116620331Y-114293500D02*
X116572712Y-114245880D01*
X117429855Y-113341119D02*
X117763188Y-114341119D01*
X117763188Y-114341119D02*
X118096521Y-113341119D01*
X116472712Y-111793500D02*
X116615569Y-111841119D01*
X116615569Y-111841119D02*
X116853664Y-111841119D01*
X116853664Y-111841119D02*
X116948902Y-111793500D01*
X116948902Y-111793500D02*
X116996521Y-111745880D01*
X116996521Y-111745880D02*
X117044140Y-111650642D01*
X117044140Y-111650642D02*
X117044140Y-111555404D01*
X117044140Y-111555404D02*
X116996521Y-111460166D01*
X116996521Y-111460166D02*
X116948902Y-111412547D01*
X116948902Y-111412547D02*
X116853664Y-111364928D01*
X116853664Y-111364928D02*
X116663188Y-111317309D01*
X116663188Y-111317309D02*
X116567950Y-111269690D01*
X116567950Y-111269690D02*
X116520331Y-111222071D01*
X116520331Y-111222071D02*
X116472712Y-111126833D01*
X116472712Y-111126833D02*
X116472712Y-111031595D01*
X116472712Y-111031595D02*
X116520331Y-110936357D01*
X116520331Y-110936357D02*
X116567950Y-110888738D01*
X116567950Y-110888738D02*
X116663188Y-110841119D01*
X116663188Y-110841119D02*
X116901283Y-110841119D01*
X116901283Y-110841119D02*
X117044140Y-110888738D01*
X117234617Y-111936357D02*
X117996521Y-111936357D01*
X118377474Y-111841119D02*
X118282236Y-111793500D01*
X118282236Y-111793500D02*
X118234617Y-111745880D01*
X118234617Y-111745880D02*
X118186998Y-111650642D01*
X118186998Y-111650642D02*
X118186998Y-111364928D01*
X118186998Y-111364928D02*
X118234617Y-111269690D01*
X118234617Y-111269690D02*
X118282236Y-111222071D01*
X118282236Y-111222071D02*
X118377474Y-111174452D01*
X118377474Y-111174452D02*
X118520331Y-111174452D01*
X118520331Y-111174452D02*
X118615569Y-111222071D01*
X118615569Y-111222071D02*
X118663188Y-111269690D01*
X118663188Y-111269690D02*
X118710807Y-111364928D01*
X118710807Y-111364928D02*
X118710807Y-111650642D01*
X118710807Y-111650642D02*
X118663188Y-111745880D01*
X118663188Y-111745880D02*
X118615569Y-111793500D01*
X118615569Y-111793500D02*
X118520331Y-111841119D01*
X118520331Y-111841119D02*
X118377474Y-111841119D01*
X119567950Y-111174452D02*
X119567950Y-111841119D01*
X119139379Y-111174452D02*
X119139379Y-111698261D01*
X119139379Y-111698261D02*
X119186998Y-111793500D01*
X119186998Y-111793500D02*
X119282236Y-111841119D01*
X119282236Y-111841119D02*
X119425093Y-111841119D01*
X119425093Y-111841119D02*
X119520331Y-111793500D01*
X119520331Y-111793500D02*
X119567950Y-111745880D01*
X119901284Y-111174452D02*
X120282236Y-111174452D01*
X120044141Y-110841119D02*
X120044141Y-111698261D01*
X120044141Y-111698261D02*
X120091760Y-111793500D01*
X120091760Y-111793500D02*
X120186998Y-111841119D01*
X120186998Y-111841119D02*
X120282236Y-111841119D01*
X120615570Y-111174452D02*
X120615570Y-112174452D01*
X120615570Y-111222071D02*
X120710808Y-111174452D01*
X120710808Y-111174452D02*
X120901284Y-111174452D01*
X120901284Y-111174452D02*
X120996522Y-111222071D01*
X120996522Y-111222071D02*
X121044141Y-111269690D01*
X121044141Y-111269690D02*
X121091760Y-111364928D01*
X121091760Y-111364928D02*
X121091760Y-111650642D01*
X121091760Y-111650642D02*
X121044141Y-111745880D01*
X121044141Y-111745880D02*
X120996522Y-111793500D01*
X120996522Y-111793500D02*
X120901284Y-111841119D01*
X120901284Y-111841119D02*
X120710808Y-111841119D01*
X120710808Y-111841119D02*
X120615570Y-111793500D01*
X121948903Y-111174452D02*
X121948903Y-111841119D01*
X121520332Y-111174452D02*
X121520332Y-111698261D01*
X121520332Y-111698261D02*
X121567951Y-111793500D01*
X121567951Y-111793500D02*
X121663189Y-111841119D01*
X121663189Y-111841119D02*
X121806046Y-111841119D01*
X121806046Y-111841119D02*
X121901284Y-111793500D01*
X121901284Y-111793500D02*
X121948903Y-111745880D01*
X122282237Y-111174452D02*
X122663189Y-111174452D01*
X122425094Y-110841119D02*
X122425094Y-111698261D01*
X122425094Y-111698261D02*
X122472713Y-111793500D01*
X122472713Y-111793500D02*
X122567951Y-111841119D01*
X122567951Y-111841119D02*
X122663189Y-111841119D01*
X116420331Y-109017309D02*
X116753664Y-109017309D01*
X116896521Y-109541119D02*
X116420331Y-109541119D01*
X116420331Y-109541119D02*
X116420331Y-108541119D01*
X116420331Y-108541119D02*
X116896521Y-108541119D01*
X117325093Y-109541119D02*
X117325093Y-108541119D01*
X117325093Y-108541119D02*
X117896521Y-109541119D01*
X117896521Y-109541119D02*
X117896521Y-108541119D01*
X117544140Y-91788738D02*
X117448902Y-91741119D01*
X117448902Y-91741119D02*
X117306045Y-91741119D01*
X117306045Y-91741119D02*
X117163188Y-91788738D01*
X117163188Y-91788738D02*
X117067950Y-91883976D01*
X117067950Y-91883976D02*
X117020331Y-91979214D01*
X117020331Y-91979214D02*
X116972712Y-92169690D01*
X116972712Y-92169690D02*
X116972712Y-92312547D01*
X116972712Y-92312547D02*
X117020331Y-92503023D01*
X117020331Y-92503023D02*
X117067950Y-92598261D01*
X117067950Y-92598261D02*
X117163188Y-92693500D01*
X117163188Y-92693500D02*
X117306045Y-92741119D01*
X117306045Y-92741119D02*
X117401283Y-92741119D01*
X117401283Y-92741119D02*
X117544140Y-92693500D01*
X117544140Y-92693500D02*
X117591759Y-92645880D01*
X117591759Y-92645880D02*
X117591759Y-92312547D01*
X117591759Y-92312547D02*
X117401283Y-92312547D01*
X118020331Y-92741119D02*
X118020331Y-91741119D01*
X118020331Y-91741119D02*
X118591759Y-92741119D01*
X118591759Y-92741119D02*
X118591759Y-91741119D01*
X119067950Y-92741119D02*
X119067950Y-91741119D01*
X119067950Y-91741119D02*
X119306045Y-91741119D01*
X119306045Y-91741119D02*
X119448902Y-91788738D01*
X119448902Y-91788738D02*
X119544140Y-91883976D01*
X119544140Y-91883976D02*
X119591759Y-91979214D01*
X119591759Y-91979214D02*
X119639378Y-92169690D01*
X119639378Y-92169690D02*
X119639378Y-92312547D01*
X119639378Y-92312547D02*
X119591759Y-92503023D01*
X119591759Y-92503023D02*
X119544140Y-92598261D01*
X119544140Y-92598261D02*
X119448902Y-92693500D01*
X119448902Y-92693500D02*
X119306045Y-92741119D01*
X119306045Y-92741119D02*
X119067950Y-92741119D01*
X116972712Y-90093500D02*
X117115569Y-90141119D01*
X117115569Y-90141119D02*
X117353664Y-90141119D01*
X117353664Y-90141119D02*
X117448902Y-90093500D01*
X117448902Y-90093500D02*
X117496521Y-90045880D01*
X117496521Y-90045880D02*
X117544140Y-89950642D01*
X117544140Y-89950642D02*
X117544140Y-89855404D01*
X117544140Y-89855404D02*
X117496521Y-89760166D01*
X117496521Y-89760166D02*
X117448902Y-89712547D01*
X117448902Y-89712547D02*
X117353664Y-89664928D01*
X117353664Y-89664928D02*
X117163188Y-89617309D01*
X117163188Y-89617309D02*
X117067950Y-89569690D01*
X117067950Y-89569690D02*
X117020331Y-89522071D01*
X117020331Y-89522071D02*
X116972712Y-89426833D01*
X116972712Y-89426833D02*
X116972712Y-89331595D01*
X116972712Y-89331595D02*
X117020331Y-89236357D01*
X117020331Y-89236357D02*
X117067950Y-89188738D01*
X117067950Y-89188738D02*
X117163188Y-89141119D01*
X117163188Y-89141119D02*
X117401283Y-89141119D01*
X117401283Y-89141119D02*
X117544140Y-89188738D01*
X117734617Y-90236357D02*
X118496521Y-90236357D01*
X118877474Y-90141119D02*
X118782236Y-90093500D01*
X118782236Y-90093500D02*
X118734617Y-90045880D01*
X118734617Y-90045880D02*
X118686998Y-89950642D01*
X118686998Y-89950642D02*
X118686998Y-89664928D01*
X118686998Y-89664928D02*
X118734617Y-89569690D01*
X118734617Y-89569690D02*
X118782236Y-89522071D01*
X118782236Y-89522071D02*
X118877474Y-89474452D01*
X118877474Y-89474452D02*
X119020331Y-89474452D01*
X119020331Y-89474452D02*
X119115569Y-89522071D01*
X119115569Y-89522071D02*
X119163188Y-89569690D01*
X119163188Y-89569690D02*
X119210807Y-89664928D01*
X119210807Y-89664928D02*
X119210807Y-89950642D01*
X119210807Y-89950642D02*
X119163188Y-90045880D01*
X119163188Y-90045880D02*
X119115569Y-90093500D01*
X119115569Y-90093500D02*
X119020331Y-90141119D01*
X119020331Y-90141119D02*
X118877474Y-90141119D01*
X120067950Y-89474452D02*
X120067950Y-90141119D01*
X119639379Y-89474452D02*
X119639379Y-89998261D01*
X119639379Y-89998261D02*
X119686998Y-90093500D01*
X119686998Y-90093500D02*
X119782236Y-90141119D01*
X119782236Y-90141119D02*
X119925093Y-90141119D01*
X119925093Y-90141119D02*
X120020331Y-90093500D01*
X120020331Y-90093500D02*
X120067950Y-90045880D01*
X120401284Y-89474452D02*
X120782236Y-89474452D01*
X120544141Y-89141119D02*
X120544141Y-89998261D01*
X120544141Y-89998261D02*
X120591760Y-90093500D01*
X120591760Y-90093500D02*
X120686998Y-90141119D01*
X120686998Y-90141119D02*
X120782236Y-90141119D01*
X121115570Y-89474452D02*
X121115570Y-90474452D01*
X121115570Y-89522071D02*
X121210808Y-89474452D01*
X121210808Y-89474452D02*
X121401284Y-89474452D01*
X121401284Y-89474452D02*
X121496522Y-89522071D01*
X121496522Y-89522071D02*
X121544141Y-89569690D01*
X121544141Y-89569690D02*
X121591760Y-89664928D01*
X121591760Y-89664928D02*
X121591760Y-89950642D01*
X121591760Y-89950642D02*
X121544141Y-90045880D01*
X121544141Y-90045880D02*
X121496522Y-90093500D01*
X121496522Y-90093500D02*
X121401284Y-90141119D01*
X121401284Y-90141119D02*
X121210808Y-90141119D01*
X121210808Y-90141119D02*
X121115570Y-90093500D01*
X122448903Y-89474452D02*
X122448903Y-90141119D01*
X122020332Y-89474452D02*
X122020332Y-89998261D01*
X122020332Y-89998261D02*
X122067951Y-90093500D01*
X122067951Y-90093500D02*
X122163189Y-90141119D01*
X122163189Y-90141119D02*
X122306046Y-90141119D01*
X122306046Y-90141119D02*
X122401284Y-90093500D01*
X122401284Y-90093500D02*
X122448903Y-90045880D01*
X122782237Y-89474452D02*
X123163189Y-89474452D01*
X122925094Y-89141119D02*
X122925094Y-89998261D01*
X122925094Y-89998261D02*
X122972713Y-90093500D01*
X122972713Y-90093500D02*
X123067951Y-90141119D01*
X123067951Y-90141119D02*
X123163189Y-90141119D01*
X117396521Y-86641119D02*
X116920331Y-86641119D01*
X116920331Y-86641119D02*
X116872712Y-87117309D01*
X116872712Y-87117309D02*
X116920331Y-87069690D01*
X116920331Y-87069690D02*
X117015569Y-87022071D01*
X117015569Y-87022071D02*
X117253664Y-87022071D01*
X117253664Y-87022071D02*
X117348902Y-87069690D01*
X117348902Y-87069690D02*
X117396521Y-87117309D01*
X117396521Y-87117309D02*
X117444140Y-87212547D01*
X117444140Y-87212547D02*
X117444140Y-87450642D01*
X117444140Y-87450642D02*
X117396521Y-87545880D01*
X117396521Y-87545880D02*
X117348902Y-87593500D01*
X117348902Y-87593500D02*
X117253664Y-87641119D01*
X117253664Y-87641119D02*
X117015569Y-87641119D01*
X117015569Y-87641119D02*
X116920331Y-87593500D01*
X116920331Y-87593500D02*
X116872712Y-87545880D01*
X117729855Y-86641119D02*
X118063188Y-87641119D01*
X118063188Y-87641119D02*
X118396521Y-86641119D01*
D12*
X143429580Y-112441666D02*
X143477200Y-112489285D01*
X143477200Y-112489285D02*
X143524819Y-112632142D01*
X143524819Y-112632142D02*
X143524819Y-112727380D01*
X143524819Y-112727380D02*
X143477200Y-112870237D01*
X143477200Y-112870237D02*
X143381961Y-112965475D01*
X143381961Y-112965475D02*
X143286723Y-113013094D01*
X143286723Y-113013094D02*
X143096247Y-113060713D01*
X143096247Y-113060713D02*
X142953390Y-113060713D01*
X142953390Y-113060713D02*
X142762914Y-113013094D01*
X142762914Y-113013094D02*
X142667676Y-112965475D01*
X142667676Y-112965475D02*
X142572438Y-112870237D01*
X142572438Y-112870237D02*
X142524819Y-112727380D01*
X142524819Y-112727380D02*
X142524819Y-112632142D01*
X142524819Y-112632142D02*
X142572438Y-112489285D01*
X142572438Y-112489285D02*
X142620057Y-112441666D01*
X143524819Y-111489285D02*
X143524819Y-112060713D01*
X143524819Y-111774999D02*
X142524819Y-111774999D01*
X142524819Y-111774999D02*
X142667676Y-111870237D01*
X142667676Y-111870237D02*
X142762914Y-111965475D01*
X142762914Y-111965475D02*
X142810533Y-112060713D01*
X127954819Y-89566666D02*
X127478628Y-89899999D01*
X127954819Y-90138094D02*
X126954819Y-90138094D01*
X126954819Y-90138094D02*
X126954819Y-89757142D01*
X126954819Y-89757142D02*
X127002438Y-89661904D01*
X127002438Y-89661904D02*
X127050057Y-89614285D01*
X127050057Y-89614285D02*
X127145295Y-89566666D01*
X127145295Y-89566666D02*
X127288152Y-89566666D01*
X127288152Y-89566666D02*
X127383390Y-89614285D01*
X127383390Y-89614285D02*
X127431009Y-89661904D01*
X127431009Y-89661904D02*
X127478628Y-89757142D01*
X127478628Y-89757142D02*
X127478628Y-90138094D01*
X126954819Y-89233332D02*
X126954819Y-88614285D01*
X126954819Y-88614285D02*
X127335771Y-88947618D01*
X127335771Y-88947618D02*
X127335771Y-88804761D01*
X127335771Y-88804761D02*
X127383390Y-88709523D01*
X127383390Y-88709523D02*
X127431009Y-88661904D01*
X127431009Y-88661904D02*
X127526247Y-88614285D01*
X127526247Y-88614285D02*
X127764342Y-88614285D01*
X127764342Y-88614285D02*
X127859580Y-88661904D01*
X127859580Y-88661904D02*
X127907200Y-88709523D01*
X127907200Y-88709523D02*
X127954819Y-88804761D01*
X127954819Y-88804761D02*
X127954819Y-89090475D01*
X127954819Y-89090475D02*
X127907200Y-89185713D01*
X127907200Y-89185713D02*
X127859580Y-89233332D01*
X158950476Y-110174819D02*
X158950476Y-109174819D01*
X158950476Y-109174819D02*
X159283809Y-109889104D01*
X159283809Y-109889104D02*
X159617142Y-109174819D01*
X159617142Y-109174819D02*
X159617142Y-110174819D01*
X160045714Y-109270057D02*
X160093333Y-109222438D01*
X160093333Y-109222438D02*
X160188571Y-109174819D01*
X160188571Y-109174819D02*
X160426666Y-109174819D01*
X160426666Y-109174819D02*
X160521904Y-109222438D01*
X160521904Y-109222438D02*
X160569523Y-109270057D01*
X160569523Y-109270057D02*
X160617142Y-109365295D01*
X160617142Y-109365295D02*
X160617142Y-109460533D01*
X160617142Y-109460533D02*
X160569523Y-109603390D01*
X160569523Y-109603390D02*
X159998095Y-110174819D01*
X159998095Y-110174819D02*
X160617142Y-110174819D01*
X109814286Y-107057200D02*
X109957143Y-107104819D01*
X109957143Y-107104819D02*
X110195238Y-107104819D01*
X110195238Y-107104819D02*
X110290476Y-107057200D01*
X110290476Y-107057200D02*
X110338095Y-107009580D01*
X110338095Y-107009580D02*
X110385714Y-106914342D01*
X110385714Y-106914342D02*
X110385714Y-106819104D01*
X110385714Y-106819104D02*
X110338095Y-106723866D01*
X110338095Y-106723866D02*
X110290476Y-106676247D01*
X110290476Y-106676247D02*
X110195238Y-106628628D01*
X110195238Y-106628628D02*
X110004762Y-106581009D01*
X110004762Y-106581009D02*
X109909524Y-106533390D01*
X109909524Y-106533390D02*
X109861905Y-106485771D01*
X109861905Y-106485771D02*
X109814286Y-106390533D01*
X109814286Y-106390533D02*
X109814286Y-106295295D01*
X109814286Y-106295295D02*
X109861905Y-106200057D01*
X109861905Y-106200057D02*
X109909524Y-106152438D01*
X109909524Y-106152438D02*
X110004762Y-106104819D01*
X110004762Y-106104819D02*
X110242857Y-106104819D01*
X110242857Y-106104819D02*
X110385714Y-106152438D01*
X111004762Y-106104819D02*
X111195238Y-106104819D01*
X111195238Y-106104819D02*
X111290476Y-106152438D01*
X111290476Y-106152438D02*
X111385714Y-106247676D01*
X111385714Y-106247676D02*
X111433333Y-106438152D01*
X111433333Y-106438152D02*
X111433333Y-106771485D01*
X111433333Y-106771485D02*
X111385714Y-106961961D01*
X111385714Y-106961961D02*
X111290476Y-107057200D01*
X111290476Y-107057200D02*
X111195238Y-107104819D01*
X111195238Y-107104819D02*
X111004762Y-107104819D01*
X111004762Y-107104819D02*
X110909524Y-107057200D01*
X110909524Y-107057200D02*
X110814286Y-106961961D01*
X110814286Y-106961961D02*
X110766667Y-106771485D01*
X110766667Y-106771485D02*
X110766667Y-106438152D01*
X110766667Y-106438152D02*
X110814286Y-106247676D01*
X110814286Y-106247676D02*
X110909524Y-106152438D01*
X110909524Y-106152438D02*
X111004762Y-106104819D01*
X112385714Y-107104819D02*
X111814286Y-107104819D01*
X112100000Y-107104819D02*
X112100000Y-106104819D01*
X112100000Y-106104819D02*
X112004762Y-106247676D01*
X112004762Y-106247676D02*
X111909524Y-106342914D01*
X111909524Y-106342914D02*
X111814286Y-106390533D01*
X147284819Y-109933333D02*
X147999104Y-109933333D01*
X147999104Y-109933333D02*
X148141961Y-109980952D01*
X148141961Y-109980952D02*
X148237200Y-110076190D01*
X148237200Y-110076190D02*
X148284819Y-110219047D01*
X148284819Y-110219047D02*
X148284819Y-110314285D01*
X147284819Y-108980952D02*
X147284819Y-109457142D01*
X147284819Y-109457142D02*
X147761009Y-109504761D01*
X147761009Y-109504761D02*
X147713390Y-109457142D01*
X147713390Y-109457142D02*
X147665771Y-109361904D01*
X147665771Y-109361904D02*
X147665771Y-109123809D01*
X147665771Y-109123809D02*
X147713390Y-109028571D01*
X147713390Y-109028571D02*
X147761009Y-108980952D01*
X147761009Y-108980952D02*
X147856247Y-108933333D01*
X147856247Y-108933333D02*
X148094342Y-108933333D01*
X148094342Y-108933333D02*
X148189580Y-108980952D01*
X148189580Y-108980952D02*
X148237200Y-109028571D01*
X148237200Y-109028571D02*
X148284819Y-109123809D01*
X148284819Y-109123809D02*
X148284819Y-109361904D01*
X148284819Y-109361904D02*
X148237200Y-109457142D01*
X148237200Y-109457142D02*
X148189580Y-109504761D01*
X138529580Y-112366666D02*
X138577200Y-112414285D01*
X138577200Y-112414285D02*
X138624819Y-112557142D01*
X138624819Y-112557142D02*
X138624819Y-112652380D01*
X138624819Y-112652380D02*
X138577200Y-112795237D01*
X138577200Y-112795237D02*
X138481961Y-112890475D01*
X138481961Y-112890475D02*
X138386723Y-112938094D01*
X138386723Y-112938094D02*
X138196247Y-112985713D01*
X138196247Y-112985713D02*
X138053390Y-112985713D01*
X138053390Y-112985713D02*
X137862914Y-112938094D01*
X137862914Y-112938094D02*
X137767676Y-112890475D01*
X137767676Y-112890475D02*
X137672438Y-112795237D01*
X137672438Y-112795237D02*
X137624819Y-112652380D01*
X137624819Y-112652380D02*
X137624819Y-112557142D01*
X137624819Y-112557142D02*
X137672438Y-112414285D01*
X137672438Y-112414285D02*
X137720057Y-112366666D01*
X137720057Y-111985713D02*
X137672438Y-111938094D01*
X137672438Y-111938094D02*
X137624819Y-111842856D01*
X137624819Y-111842856D02*
X137624819Y-111604761D01*
X137624819Y-111604761D02*
X137672438Y-111509523D01*
X137672438Y-111509523D02*
X137720057Y-111461904D01*
X137720057Y-111461904D02*
X137815295Y-111414285D01*
X137815295Y-111414285D02*
X137910533Y-111414285D01*
X137910533Y-111414285D02*
X138053390Y-111461904D01*
X138053390Y-111461904D02*
X138624819Y-112033332D01*
X138624819Y-112033332D02*
X138624819Y-111414285D01*
X114738095Y-85177200D02*
X114880952Y-85224819D01*
X114880952Y-85224819D02*
X115119047Y-85224819D01*
X115119047Y-85224819D02*
X115214285Y-85177200D01*
X115214285Y-85177200D02*
X115261904Y-85129580D01*
X115261904Y-85129580D02*
X115309523Y-85034342D01*
X115309523Y-85034342D02*
X115309523Y-84939104D01*
X115309523Y-84939104D02*
X115261904Y-84843866D01*
X115261904Y-84843866D02*
X115214285Y-84796247D01*
X115214285Y-84796247D02*
X115119047Y-84748628D01*
X115119047Y-84748628D02*
X114928571Y-84701009D01*
X114928571Y-84701009D02*
X114833333Y-84653390D01*
X114833333Y-84653390D02*
X114785714Y-84605771D01*
X114785714Y-84605771D02*
X114738095Y-84510533D01*
X114738095Y-84510533D02*
X114738095Y-84415295D01*
X114738095Y-84415295D02*
X114785714Y-84320057D01*
X114785714Y-84320057D02*
X114833333Y-84272438D01*
X114833333Y-84272438D02*
X114928571Y-84224819D01*
X114928571Y-84224819D02*
X115166666Y-84224819D01*
X115166666Y-84224819D02*
X115309523Y-84272438D01*
X115690476Y-84320057D02*
X115738095Y-84272438D01*
X115738095Y-84272438D02*
X115833333Y-84224819D01*
X115833333Y-84224819D02*
X116071428Y-84224819D01*
X116071428Y-84224819D02*
X116166666Y-84272438D01*
X116166666Y-84272438D02*
X116214285Y-84320057D01*
X116214285Y-84320057D02*
X116261904Y-84415295D01*
X116261904Y-84415295D02*
X116261904Y-84510533D01*
X116261904Y-84510533D02*
X116214285Y-84653390D01*
X116214285Y-84653390D02*
X115642857Y-85224819D01*
X115642857Y-85224819D02*
X116261904Y-85224819D01*
X182488095Y-80654819D02*
X183059523Y-80654819D01*
X182773809Y-81654819D02*
X182773809Y-80654819D01*
X183726190Y-81131009D02*
X183869047Y-81178628D01*
X183869047Y-81178628D02*
X183916666Y-81226247D01*
X183916666Y-81226247D02*
X183964285Y-81321485D01*
X183964285Y-81321485D02*
X183964285Y-81464342D01*
X183964285Y-81464342D02*
X183916666Y-81559580D01*
X183916666Y-81559580D02*
X183869047Y-81607200D01*
X183869047Y-81607200D02*
X183773809Y-81654819D01*
X183773809Y-81654819D02*
X183392857Y-81654819D01*
X183392857Y-81654819D02*
X183392857Y-80654819D01*
X183392857Y-80654819D02*
X183726190Y-80654819D01*
X183726190Y-80654819D02*
X183821428Y-80702438D01*
X183821428Y-80702438D02*
X183869047Y-80750057D01*
X183869047Y-80750057D02*
X183916666Y-80845295D01*
X183916666Y-80845295D02*
X183916666Y-80940533D01*
X183916666Y-80940533D02*
X183869047Y-81035771D01*
X183869047Y-81035771D02*
X183821428Y-81083390D01*
X183821428Y-81083390D02*
X183726190Y-81131009D01*
X183726190Y-81131009D02*
X183392857Y-81131009D01*
X184916666Y-81654819D02*
X184345238Y-81654819D01*
X184630952Y-81654819D02*
X184630952Y-80654819D01*
X184630952Y-80654819D02*
X184535714Y-80797676D01*
X184535714Y-80797676D02*
X184440476Y-80892914D01*
X184440476Y-80892914D02*
X184345238Y-80940533D01*
X134354819Y-89566666D02*
X133878628Y-89899999D01*
X134354819Y-90138094D02*
X133354819Y-90138094D01*
X133354819Y-90138094D02*
X133354819Y-89757142D01*
X133354819Y-89757142D02*
X133402438Y-89661904D01*
X133402438Y-89661904D02*
X133450057Y-89614285D01*
X133450057Y-89614285D02*
X133545295Y-89566666D01*
X133545295Y-89566666D02*
X133688152Y-89566666D01*
X133688152Y-89566666D02*
X133783390Y-89614285D01*
X133783390Y-89614285D02*
X133831009Y-89661904D01*
X133831009Y-89661904D02*
X133878628Y-89757142D01*
X133878628Y-89757142D02*
X133878628Y-90138094D01*
X133354819Y-88661904D02*
X133354819Y-89138094D01*
X133354819Y-89138094D02*
X133831009Y-89185713D01*
X133831009Y-89185713D02*
X133783390Y-89138094D01*
X133783390Y-89138094D02*
X133735771Y-89042856D01*
X133735771Y-89042856D02*
X133735771Y-88804761D01*
X133735771Y-88804761D02*
X133783390Y-88709523D01*
X133783390Y-88709523D02*
X133831009Y-88661904D01*
X133831009Y-88661904D02*
X133926247Y-88614285D01*
X133926247Y-88614285D02*
X134164342Y-88614285D01*
X134164342Y-88614285D02*
X134259580Y-88661904D01*
X134259580Y-88661904D02*
X134307200Y-88709523D01*
X134307200Y-88709523D02*
X134354819Y-88804761D01*
X134354819Y-88804761D02*
X134354819Y-89042856D01*
X134354819Y-89042856D02*
X134307200Y-89138094D01*
X134307200Y-89138094D02*
X134259580Y-89185713D01*
X111138095Y-85152200D02*
X111280952Y-85199819D01*
X111280952Y-85199819D02*
X111519047Y-85199819D01*
X111519047Y-85199819D02*
X111614285Y-85152200D01*
X111614285Y-85152200D02*
X111661904Y-85104580D01*
X111661904Y-85104580D02*
X111709523Y-85009342D01*
X111709523Y-85009342D02*
X111709523Y-84914104D01*
X111709523Y-84914104D02*
X111661904Y-84818866D01*
X111661904Y-84818866D02*
X111614285Y-84771247D01*
X111614285Y-84771247D02*
X111519047Y-84723628D01*
X111519047Y-84723628D02*
X111328571Y-84676009D01*
X111328571Y-84676009D02*
X111233333Y-84628390D01*
X111233333Y-84628390D02*
X111185714Y-84580771D01*
X111185714Y-84580771D02*
X111138095Y-84485533D01*
X111138095Y-84485533D02*
X111138095Y-84390295D01*
X111138095Y-84390295D02*
X111185714Y-84295057D01*
X111185714Y-84295057D02*
X111233333Y-84247438D01*
X111233333Y-84247438D02*
X111328571Y-84199819D01*
X111328571Y-84199819D02*
X111566666Y-84199819D01*
X111566666Y-84199819D02*
X111709523Y-84247438D01*
X112661904Y-85199819D02*
X112090476Y-85199819D01*
X112376190Y-85199819D02*
X112376190Y-84199819D01*
X112376190Y-84199819D02*
X112280952Y-84342676D01*
X112280952Y-84342676D02*
X112185714Y-84437914D01*
X112185714Y-84437914D02*
X112090476Y-84485533D01*
X189061905Y-113209819D02*
X189061905Y-112209819D01*
X189061905Y-112209819D02*
X189442857Y-112209819D01*
X189442857Y-112209819D02*
X189538095Y-112257438D01*
X189538095Y-112257438D02*
X189585714Y-112305057D01*
X189585714Y-112305057D02*
X189633333Y-112400295D01*
X189633333Y-112400295D02*
X189633333Y-112543152D01*
X189633333Y-112543152D02*
X189585714Y-112638390D01*
X189585714Y-112638390D02*
X189538095Y-112686009D01*
X189538095Y-112686009D02*
X189442857Y-112733628D01*
X189442857Y-112733628D02*
X189061905Y-112733628D01*
X190585714Y-113209819D02*
X190014286Y-113209819D01*
X190300000Y-113209819D02*
X190300000Y-112209819D01*
X190300000Y-112209819D02*
X190204762Y-112352676D01*
X190204762Y-112352676D02*
X190109524Y-112447914D01*
X190109524Y-112447914D02*
X190014286Y-112495533D01*
X165836666Y-106404819D02*
X165836666Y-107119104D01*
X165836666Y-107119104D02*
X165789047Y-107261961D01*
X165789047Y-107261961D02*
X165693809Y-107357200D01*
X165693809Y-107357200D02*
X165550952Y-107404819D01*
X165550952Y-107404819D02*
X165455714Y-107404819D01*
X166217619Y-106404819D02*
X166836666Y-106404819D01*
X166836666Y-106404819D02*
X166503333Y-106785771D01*
X166503333Y-106785771D02*
X166646190Y-106785771D01*
X166646190Y-106785771D02*
X166741428Y-106833390D01*
X166741428Y-106833390D02*
X166789047Y-106881009D01*
X166789047Y-106881009D02*
X166836666Y-106976247D01*
X166836666Y-106976247D02*
X166836666Y-107214342D01*
X166836666Y-107214342D02*
X166789047Y-107309580D01*
X166789047Y-107309580D02*
X166741428Y-107357200D01*
X166741428Y-107357200D02*
X166646190Y-107404819D01*
X166646190Y-107404819D02*
X166360476Y-107404819D01*
X166360476Y-107404819D02*
X166265238Y-107357200D01*
X166265238Y-107357200D02*
X166217619Y-107309580D01*
X181854819Y-107638094D02*
X180854819Y-107638094D01*
X180854819Y-107638094D02*
X180854819Y-107399999D01*
X180854819Y-107399999D02*
X180902438Y-107257142D01*
X180902438Y-107257142D02*
X180997676Y-107161904D01*
X180997676Y-107161904D02*
X181092914Y-107114285D01*
X181092914Y-107114285D02*
X181283390Y-107066666D01*
X181283390Y-107066666D02*
X181426247Y-107066666D01*
X181426247Y-107066666D02*
X181616723Y-107114285D01*
X181616723Y-107114285D02*
X181711961Y-107161904D01*
X181711961Y-107161904D02*
X181807200Y-107257142D01*
X181807200Y-107257142D02*
X181854819Y-107399999D01*
X181854819Y-107399999D02*
X181854819Y-107638094D01*
X180854819Y-106733332D02*
X180854819Y-106114285D01*
X180854819Y-106114285D02*
X181235771Y-106447618D01*
X181235771Y-106447618D02*
X181235771Y-106304761D01*
X181235771Y-106304761D02*
X181283390Y-106209523D01*
X181283390Y-106209523D02*
X181331009Y-106161904D01*
X181331009Y-106161904D02*
X181426247Y-106114285D01*
X181426247Y-106114285D02*
X181664342Y-106114285D01*
X181664342Y-106114285D02*
X181759580Y-106161904D01*
X181759580Y-106161904D02*
X181807200Y-106209523D01*
X181807200Y-106209523D02*
X181854819Y-106304761D01*
X181854819Y-106304761D02*
X181854819Y-106590475D01*
X181854819Y-106590475D02*
X181807200Y-106685713D01*
X181807200Y-106685713D02*
X181759580Y-106733332D01*
D13*
X151915032Y-89378300D02*
X151772175Y-89330680D01*
X151772175Y-89330680D02*
X151534080Y-89330680D01*
X151534080Y-89330680D02*
X151438842Y-89378300D01*
X151438842Y-89378300D02*
X151391223Y-89425919D01*
X151391223Y-89425919D02*
X151343604Y-89521157D01*
X151343604Y-89521157D02*
X151343604Y-89616395D01*
X151343604Y-89616395D02*
X151391223Y-89711633D01*
X151391223Y-89711633D02*
X151438842Y-89759252D01*
X151438842Y-89759252D02*
X151534080Y-89806871D01*
X151534080Y-89806871D02*
X151724556Y-89854490D01*
X151724556Y-89854490D02*
X151819794Y-89902109D01*
X151819794Y-89902109D02*
X151867413Y-89949728D01*
X151867413Y-89949728D02*
X151915032Y-90044966D01*
X151915032Y-90044966D02*
X151915032Y-90140204D01*
X151915032Y-90140204D02*
X151867413Y-90235442D01*
X151867413Y-90235442D02*
X151819794Y-90283061D01*
X151819794Y-90283061D02*
X151724556Y-90330680D01*
X151724556Y-90330680D02*
X151486461Y-90330680D01*
X151486461Y-90330680D02*
X151343604Y-90283061D01*
X151010270Y-90330680D02*
X150772175Y-89330680D01*
X150772175Y-89330680D02*
X150581699Y-90044966D01*
X150581699Y-90044966D02*
X150391223Y-89330680D01*
X150391223Y-89330680D02*
X150153128Y-90330680D01*
X149248366Y-89330680D02*
X149819794Y-89330680D01*
X149534080Y-89330680D02*
X149534080Y-90330680D01*
X149534080Y-90330680D02*
X149629318Y-90187823D01*
X149629318Y-90187823D02*
X149724556Y-90092585D01*
X149724556Y-90092585D02*
X149819794Y-90044966D01*
D12*
X154564819Y-107333333D02*
X155279104Y-107333333D01*
X155279104Y-107333333D02*
X155421961Y-107380952D01*
X155421961Y-107380952D02*
X155517200Y-107476190D01*
X155517200Y-107476190D02*
X155564819Y-107619047D01*
X155564819Y-107619047D02*
X155564819Y-107714285D01*
X154660057Y-106904761D02*
X154612438Y-106857142D01*
X154612438Y-106857142D02*
X154564819Y-106761904D01*
X154564819Y-106761904D02*
X154564819Y-106523809D01*
X154564819Y-106523809D02*
X154612438Y-106428571D01*
X154612438Y-106428571D02*
X154660057Y-106380952D01*
X154660057Y-106380952D02*
X154755295Y-106333333D01*
X154755295Y-106333333D02*
X154850533Y-106333333D01*
X154850533Y-106333333D02*
X154993390Y-106380952D01*
X154993390Y-106380952D02*
X155564819Y-106952380D01*
X155564819Y-106952380D02*
X155564819Y-106333333D01*
X124754819Y-89566666D02*
X124278628Y-89899999D01*
X124754819Y-90138094D02*
X123754819Y-90138094D01*
X123754819Y-90138094D02*
X123754819Y-89757142D01*
X123754819Y-89757142D02*
X123802438Y-89661904D01*
X123802438Y-89661904D02*
X123850057Y-89614285D01*
X123850057Y-89614285D02*
X123945295Y-89566666D01*
X123945295Y-89566666D02*
X124088152Y-89566666D01*
X124088152Y-89566666D02*
X124183390Y-89614285D01*
X124183390Y-89614285D02*
X124231009Y-89661904D01*
X124231009Y-89661904D02*
X124278628Y-89757142D01*
X124278628Y-89757142D02*
X124278628Y-90138094D01*
X123850057Y-89185713D02*
X123802438Y-89138094D01*
X123802438Y-89138094D02*
X123754819Y-89042856D01*
X123754819Y-89042856D02*
X123754819Y-88804761D01*
X123754819Y-88804761D02*
X123802438Y-88709523D01*
X123802438Y-88709523D02*
X123850057Y-88661904D01*
X123850057Y-88661904D02*
X123945295Y-88614285D01*
X123945295Y-88614285D02*
X124040533Y-88614285D01*
X124040533Y-88614285D02*
X124183390Y-88661904D01*
X124183390Y-88661904D02*
X124754819Y-89233332D01*
X124754819Y-89233332D02*
X124754819Y-88614285D01*
X175454819Y-107738094D02*
X174454819Y-107738094D01*
X174454819Y-107738094D02*
X174454819Y-107499999D01*
X174454819Y-107499999D02*
X174502438Y-107357142D01*
X174502438Y-107357142D02*
X174597676Y-107261904D01*
X174597676Y-107261904D02*
X174692914Y-107214285D01*
X174692914Y-107214285D02*
X174883390Y-107166666D01*
X174883390Y-107166666D02*
X175026247Y-107166666D01*
X175026247Y-107166666D02*
X175216723Y-107214285D01*
X175216723Y-107214285D02*
X175311961Y-107261904D01*
X175311961Y-107261904D02*
X175407200Y-107357142D01*
X175407200Y-107357142D02*
X175454819Y-107499999D01*
X175454819Y-107499999D02*
X175454819Y-107738094D01*
X174454819Y-106309523D02*
X174454819Y-106499999D01*
X174454819Y-106499999D02*
X174502438Y-106595237D01*
X174502438Y-106595237D02*
X174550057Y-106642856D01*
X174550057Y-106642856D02*
X174692914Y-106738094D01*
X174692914Y-106738094D02*
X174883390Y-106785713D01*
X174883390Y-106785713D02*
X175264342Y-106785713D01*
X175264342Y-106785713D02*
X175359580Y-106738094D01*
X175359580Y-106738094D02*
X175407200Y-106690475D01*
X175407200Y-106690475D02*
X175454819Y-106595237D01*
X175454819Y-106595237D02*
X175454819Y-106404761D01*
X175454819Y-106404761D02*
X175407200Y-106309523D01*
X175407200Y-106309523D02*
X175359580Y-106261904D01*
X175359580Y-106261904D02*
X175264342Y-106214285D01*
X175264342Y-106214285D02*
X175026247Y-106214285D01*
X175026247Y-106214285D02*
X174931009Y-106261904D01*
X174931009Y-106261904D02*
X174883390Y-106309523D01*
X174883390Y-106309523D02*
X174835771Y-106404761D01*
X174835771Y-106404761D02*
X174835771Y-106595237D01*
X174835771Y-106595237D02*
X174883390Y-106690475D01*
X174883390Y-106690475D02*
X174931009Y-106738094D01*
X174931009Y-106738094D02*
X175026247Y-106785713D01*
X165261905Y-80504819D02*
X165261905Y-79504819D01*
X165261905Y-79504819D02*
X165500000Y-79504819D01*
X165500000Y-79504819D02*
X165642857Y-79552438D01*
X165642857Y-79552438D02*
X165738095Y-79647676D01*
X165738095Y-79647676D02*
X165785714Y-79742914D01*
X165785714Y-79742914D02*
X165833333Y-79933390D01*
X165833333Y-79933390D02*
X165833333Y-80076247D01*
X165833333Y-80076247D02*
X165785714Y-80266723D01*
X165785714Y-80266723D02*
X165738095Y-80361961D01*
X165738095Y-80361961D02*
X165642857Y-80457200D01*
X165642857Y-80457200D02*
X165500000Y-80504819D01*
X165500000Y-80504819D02*
X165261905Y-80504819D01*
X166785714Y-80504819D02*
X166214286Y-80504819D01*
X166500000Y-80504819D02*
X166500000Y-79504819D01*
X166500000Y-79504819D02*
X166404762Y-79647676D01*
X166404762Y-79647676D02*
X166309524Y-79742914D01*
X166309524Y-79742914D02*
X166214286Y-79790533D01*
X121554819Y-89566666D02*
X121078628Y-89899999D01*
X121554819Y-90138094D02*
X120554819Y-90138094D01*
X120554819Y-90138094D02*
X120554819Y-89757142D01*
X120554819Y-89757142D02*
X120602438Y-89661904D01*
X120602438Y-89661904D02*
X120650057Y-89614285D01*
X120650057Y-89614285D02*
X120745295Y-89566666D01*
X120745295Y-89566666D02*
X120888152Y-89566666D01*
X120888152Y-89566666D02*
X120983390Y-89614285D01*
X120983390Y-89614285D02*
X121031009Y-89661904D01*
X121031009Y-89661904D02*
X121078628Y-89757142D01*
X121078628Y-89757142D02*
X121078628Y-90138094D01*
X121554819Y-88614285D02*
X121554819Y-89185713D01*
X121554819Y-88899999D02*
X120554819Y-88899999D01*
X120554819Y-88899999D02*
X120697676Y-88995237D01*
X120697676Y-88995237D02*
X120792914Y-89090475D01*
X120792914Y-89090475D02*
X120840533Y-89185713D01*
X150766666Y-81931009D02*
X150433333Y-81931009D01*
X150433333Y-82454819D02*
X150433333Y-81454819D01*
X150433333Y-81454819D02*
X150909523Y-81454819D01*
X151814285Y-82454819D02*
X151242857Y-82454819D01*
X151528571Y-82454819D02*
X151528571Y-81454819D01*
X151528571Y-81454819D02*
X151433333Y-81597676D01*
X151433333Y-81597676D02*
X151338095Y-81692914D01*
X151338095Y-81692914D02*
X151242857Y-81740533D01*
X122766666Y-113554819D02*
X122766666Y-114269104D01*
X122766666Y-114269104D02*
X122719047Y-114411961D01*
X122719047Y-114411961D02*
X122623809Y-114507200D01*
X122623809Y-114507200D02*
X122480952Y-114554819D01*
X122480952Y-114554819D02*
X122385714Y-114554819D01*
X123671428Y-113888152D02*
X123671428Y-114554819D01*
X123433333Y-113507200D02*
X123195238Y-114221485D01*
X123195238Y-114221485D02*
X123814285Y-114221485D01*
X140654819Y-89566666D02*
X140178628Y-89899999D01*
X140654819Y-90138094D02*
X139654819Y-90138094D01*
X139654819Y-90138094D02*
X139654819Y-89757142D01*
X139654819Y-89757142D02*
X139702438Y-89661904D01*
X139702438Y-89661904D02*
X139750057Y-89614285D01*
X139750057Y-89614285D02*
X139845295Y-89566666D01*
X139845295Y-89566666D02*
X139988152Y-89566666D01*
X139988152Y-89566666D02*
X140083390Y-89614285D01*
X140083390Y-89614285D02*
X140131009Y-89661904D01*
X140131009Y-89661904D02*
X140178628Y-89757142D01*
X140178628Y-89757142D02*
X140178628Y-90138094D01*
X139654819Y-89233332D02*
X139654819Y-88566666D01*
X139654819Y-88566666D02*
X140654819Y-88995237D01*
X137454819Y-89566666D02*
X136978628Y-89899999D01*
X137454819Y-90138094D02*
X136454819Y-90138094D01*
X136454819Y-90138094D02*
X136454819Y-89757142D01*
X136454819Y-89757142D02*
X136502438Y-89661904D01*
X136502438Y-89661904D02*
X136550057Y-89614285D01*
X136550057Y-89614285D02*
X136645295Y-89566666D01*
X136645295Y-89566666D02*
X136788152Y-89566666D01*
X136788152Y-89566666D02*
X136883390Y-89614285D01*
X136883390Y-89614285D02*
X136931009Y-89661904D01*
X136931009Y-89661904D02*
X136978628Y-89757142D01*
X136978628Y-89757142D02*
X136978628Y-90138094D01*
X136454819Y-88709523D02*
X136454819Y-88899999D01*
X136454819Y-88899999D02*
X136502438Y-88995237D01*
X136502438Y-88995237D02*
X136550057Y-89042856D01*
X136550057Y-89042856D02*
X136692914Y-89138094D01*
X136692914Y-89138094D02*
X136883390Y-89185713D01*
X136883390Y-89185713D02*
X137264342Y-89185713D01*
X137264342Y-89185713D02*
X137359580Y-89138094D01*
X137359580Y-89138094D02*
X137407200Y-89090475D01*
X137407200Y-89090475D02*
X137454819Y-88995237D01*
X137454819Y-88995237D02*
X137454819Y-88804761D01*
X137454819Y-88804761D02*
X137407200Y-88709523D01*
X137407200Y-88709523D02*
X137359580Y-88661904D01*
X137359580Y-88661904D02*
X137264342Y-88614285D01*
X137264342Y-88614285D02*
X137026247Y-88614285D01*
X137026247Y-88614285D02*
X136931009Y-88661904D01*
X136931009Y-88661904D02*
X136883390Y-88709523D01*
X136883390Y-88709523D02*
X136835771Y-88804761D01*
X136835771Y-88804761D02*
X136835771Y-88995237D01*
X136835771Y-88995237D02*
X136883390Y-89090475D01*
X136883390Y-89090475D02*
X136931009Y-89138094D01*
X136931009Y-89138094D02*
X137026247Y-89185713D01*
X179754819Y-107638094D02*
X178754819Y-107638094D01*
X178754819Y-107638094D02*
X178754819Y-107399999D01*
X178754819Y-107399999D02*
X178802438Y-107257142D01*
X178802438Y-107257142D02*
X178897676Y-107161904D01*
X178897676Y-107161904D02*
X178992914Y-107114285D01*
X178992914Y-107114285D02*
X179183390Y-107066666D01*
X179183390Y-107066666D02*
X179326247Y-107066666D01*
X179326247Y-107066666D02*
X179516723Y-107114285D01*
X179516723Y-107114285D02*
X179611961Y-107161904D01*
X179611961Y-107161904D02*
X179707200Y-107257142D01*
X179707200Y-107257142D02*
X179754819Y-107399999D01*
X179754819Y-107399999D02*
X179754819Y-107638094D01*
X179088152Y-106209523D02*
X179754819Y-106209523D01*
X178707200Y-106447618D02*
X179421485Y-106685713D01*
X179421485Y-106685713D02*
X179421485Y-106066666D01*
X179630476Y-110174819D02*
X179630476Y-109174819D01*
X179630476Y-109174819D02*
X179963809Y-109889104D01*
X179963809Y-109889104D02*
X180297142Y-109174819D01*
X180297142Y-109174819D02*
X180297142Y-110174819D01*
X181297142Y-110174819D02*
X180725714Y-110174819D01*
X181011428Y-110174819D02*
X181011428Y-109174819D01*
X181011428Y-109174819D02*
X180916190Y-109317676D01*
X180916190Y-109317676D02*
X180820952Y-109412914D01*
X180820952Y-109412914D02*
X180725714Y-109460533D01*
X177654819Y-107638094D02*
X176654819Y-107638094D01*
X176654819Y-107638094D02*
X176654819Y-107399999D01*
X176654819Y-107399999D02*
X176702438Y-107257142D01*
X176702438Y-107257142D02*
X176797676Y-107161904D01*
X176797676Y-107161904D02*
X176892914Y-107114285D01*
X176892914Y-107114285D02*
X177083390Y-107066666D01*
X177083390Y-107066666D02*
X177226247Y-107066666D01*
X177226247Y-107066666D02*
X177416723Y-107114285D01*
X177416723Y-107114285D02*
X177511961Y-107161904D01*
X177511961Y-107161904D02*
X177607200Y-107257142D01*
X177607200Y-107257142D02*
X177654819Y-107399999D01*
X177654819Y-107399999D02*
X177654819Y-107638094D01*
X176654819Y-106161904D02*
X176654819Y-106638094D01*
X176654819Y-106638094D02*
X177131009Y-106685713D01*
X177131009Y-106685713D02*
X177083390Y-106638094D01*
X177083390Y-106638094D02*
X177035771Y-106542856D01*
X177035771Y-106542856D02*
X177035771Y-106304761D01*
X177035771Y-106304761D02*
X177083390Y-106209523D01*
X177083390Y-106209523D02*
X177131009Y-106161904D01*
X177131009Y-106161904D02*
X177226247Y-106114285D01*
X177226247Y-106114285D02*
X177464342Y-106114285D01*
X177464342Y-106114285D02*
X177559580Y-106161904D01*
X177559580Y-106161904D02*
X177607200Y-106209523D01*
X177607200Y-106209523D02*
X177654819Y-106304761D01*
X177654819Y-106304761D02*
X177654819Y-106542856D01*
X177654819Y-106542856D02*
X177607200Y-106638094D01*
X177607200Y-106638094D02*
X177559580Y-106685713D01*
X131154819Y-89566666D02*
X130678628Y-89899999D01*
X131154819Y-90138094D02*
X130154819Y-90138094D01*
X130154819Y-90138094D02*
X130154819Y-89757142D01*
X130154819Y-89757142D02*
X130202438Y-89661904D01*
X130202438Y-89661904D02*
X130250057Y-89614285D01*
X130250057Y-89614285D02*
X130345295Y-89566666D01*
X130345295Y-89566666D02*
X130488152Y-89566666D01*
X130488152Y-89566666D02*
X130583390Y-89614285D01*
X130583390Y-89614285D02*
X130631009Y-89661904D01*
X130631009Y-89661904D02*
X130678628Y-89757142D01*
X130678628Y-89757142D02*
X130678628Y-90138094D01*
X130488152Y-88709523D02*
X131154819Y-88709523D01*
X130107200Y-88947618D02*
X130821485Y-89185713D01*
X130821485Y-89185713D02*
X130821485Y-88566666D01*
X113614286Y-107037200D02*
X113757143Y-107084819D01*
X113757143Y-107084819D02*
X113995238Y-107084819D01*
X113995238Y-107084819D02*
X114090476Y-107037200D01*
X114090476Y-107037200D02*
X114138095Y-106989580D01*
X114138095Y-106989580D02*
X114185714Y-106894342D01*
X114185714Y-106894342D02*
X114185714Y-106799104D01*
X114185714Y-106799104D02*
X114138095Y-106703866D01*
X114138095Y-106703866D02*
X114090476Y-106656247D01*
X114090476Y-106656247D02*
X113995238Y-106608628D01*
X113995238Y-106608628D02*
X113804762Y-106561009D01*
X113804762Y-106561009D02*
X113709524Y-106513390D01*
X113709524Y-106513390D02*
X113661905Y-106465771D01*
X113661905Y-106465771D02*
X113614286Y-106370533D01*
X113614286Y-106370533D02*
X113614286Y-106275295D01*
X113614286Y-106275295D02*
X113661905Y-106180057D01*
X113661905Y-106180057D02*
X113709524Y-106132438D01*
X113709524Y-106132438D02*
X113804762Y-106084819D01*
X113804762Y-106084819D02*
X114042857Y-106084819D01*
X114042857Y-106084819D02*
X114185714Y-106132438D01*
X114804762Y-106084819D02*
X114995238Y-106084819D01*
X114995238Y-106084819D02*
X115090476Y-106132438D01*
X115090476Y-106132438D02*
X115185714Y-106227676D01*
X115185714Y-106227676D02*
X115233333Y-106418152D01*
X115233333Y-106418152D02*
X115233333Y-106751485D01*
X115233333Y-106751485D02*
X115185714Y-106941961D01*
X115185714Y-106941961D02*
X115090476Y-107037200D01*
X115090476Y-107037200D02*
X114995238Y-107084819D01*
X114995238Y-107084819D02*
X114804762Y-107084819D01*
X114804762Y-107084819D02*
X114709524Y-107037200D01*
X114709524Y-107037200D02*
X114614286Y-106941961D01*
X114614286Y-106941961D02*
X114566667Y-106751485D01*
X114566667Y-106751485D02*
X114566667Y-106418152D01*
X114566667Y-106418152D02*
X114614286Y-106227676D01*
X114614286Y-106227676D02*
X114709524Y-106132438D01*
X114709524Y-106132438D02*
X114804762Y-106084819D01*
X115614286Y-106180057D02*
X115661905Y-106132438D01*
X115661905Y-106132438D02*
X115757143Y-106084819D01*
X115757143Y-106084819D02*
X115995238Y-106084819D01*
X115995238Y-106084819D02*
X116090476Y-106132438D01*
X116090476Y-106132438D02*
X116138095Y-106180057D01*
X116138095Y-106180057D02*
X116185714Y-106275295D01*
X116185714Y-106275295D02*
X116185714Y-106370533D01*
X116185714Y-106370533D02*
X116138095Y-106513390D01*
X116138095Y-106513390D02*
X115566667Y-107084819D01*
X115566667Y-107084819D02*
X116185714Y-107084819D01*
D14*
%TO.C,C1*%
X143990000Y-112415580D02*
X143990000Y-112134420D01*
X145010000Y-112415580D02*
X145010000Y-112134420D01*
%TO.C,R3*%
X126130000Y-92660000D02*
X126130000Y-86120000D01*
X126460000Y-92660000D02*
X126130000Y-92660000D01*
X128540000Y-92660000D02*
X128870000Y-92660000D01*
X128870000Y-92660000D02*
X128870000Y-86120000D01*
X126130000Y-86120000D02*
X126460000Y-86120000D01*
X128870000Y-86120000D02*
X128540000Y-86120000D01*
%TO.C,M2*%
X154680000Y-110990000D02*
X154680000Y-118610000D01*
X154680000Y-118610000D02*
X164840000Y-118610000D01*
X164840000Y-110990000D02*
X154680000Y-110990000D01*
X164840000Y-117340000D02*
X154680000Y-117340000D01*
X164840000Y-118610000D02*
X164840000Y-110990000D01*
%TO.C,Brd1*%
X123681000Y-79589000D02*
X123681000Y-82002000D01*
X123681000Y-79589000D02*
X133460000Y-79589000D01*
X133460000Y-79589000D02*
X133460000Y-82002000D01*
X133460000Y-82002000D02*
X123681000Y-82002000D01*
%TO.C,SO1*%
X109770000Y-107650000D02*
X111100000Y-107650000D01*
X109770000Y-108980000D02*
X109770000Y-107650000D01*
X109770000Y-110250000D02*
X109770000Y-117930000D01*
X109770000Y-110250000D02*
X112430000Y-110250000D01*
X109770000Y-117930000D02*
X112430000Y-117930000D01*
X112430000Y-110250000D02*
X112430000Y-117930000D01*
%TO.C,J5*%
X148830000Y-110930000D02*
X148830000Y-109600000D01*
X150160000Y-110930000D02*
X148830000Y-110930000D01*
X151430000Y-110930000D02*
X154030000Y-110930000D01*
X151430000Y-110930000D02*
X151430000Y-108270000D01*
X154030000Y-110930000D02*
X154030000Y-108270000D01*
X151430000Y-108270000D02*
X154030000Y-108270000D01*
%TO.C,C2*%
X139090000Y-112340580D02*
X139090000Y-112059420D01*
X140110000Y-112340580D02*
X140110000Y-112059420D01*
%TO.C,S2*%
X114170000Y-85770000D02*
X115500000Y-85770000D01*
X114170000Y-87100000D02*
X114170000Y-85770000D01*
X114170000Y-88370000D02*
X114170000Y-93510000D01*
X114170000Y-88370000D02*
X116830000Y-88370000D01*
X114170000Y-93510000D02*
X116830000Y-93510000D01*
X116830000Y-88370000D02*
X116830000Y-93510000D01*
%TO.C,TB1*%
X176000000Y-79860000D02*
X176000000Y-81260000D01*
X176000000Y-82530000D02*
X176000000Y-100440000D01*
X176000000Y-100440000D02*
X191500000Y-100440000D01*
X177400000Y-79860000D02*
X176000000Y-79860000D01*
X178670000Y-79860000D02*
X178670000Y-82530000D01*
X178670000Y-82530000D02*
X176000000Y-82530000D01*
X178670000Y-82530000D02*
X178670000Y-100440000D01*
X188830000Y-79860000D02*
X188830000Y-100440000D01*
X191500000Y-79860000D02*
X178670000Y-79860000D01*
X191500000Y-100440000D02*
X191500000Y-79860000D01*
%TO.C,R5*%
X132530000Y-92660000D02*
X132530000Y-86120000D01*
X132860000Y-92660000D02*
X132530000Y-92660000D01*
X134940000Y-92660000D02*
X135270000Y-92660000D01*
X135270000Y-92660000D02*
X135270000Y-86120000D01*
X132530000Y-86120000D02*
X132860000Y-86120000D01*
X135270000Y-86120000D02*
X134940000Y-86120000D01*
%TO.C,S1*%
X110570000Y-85745000D02*
X111900000Y-85745000D01*
X110570000Y-87075000D02*
X110570000Y-85745000D01*
X110570000Y-88345000D02*
X110570000Y-93485000D01*
X110570000Y-88345000D02*
X113230000Y-88345000D01*
X110570000Y-93485000D02*
X113230000Y-93485000D01*
X113230000Y-88345000D02*
X113230000Y-93485000D01*
%TO.C,P1*%
X191130000Y-111755000D02*
X189800000Y-111755000D01*
X191130000Y-110425000D02*
X191130000Y-111755000D01*
X191130000Y-109155000D02*
X191130000Y-104015000D01*
X191130000Y-109155000D02*
X188470000Y-109155000D01*
X191130000Y-104015000D02*
X188470000Y-104015000D01*
X188470000Y-109155000D02*
X188470000Y-104015000D01*
%TO.C,J3*%
X168770000Y-105950000D02*
X167440000Y-105950000D01*
X168770000Y-104620000D02*
X168770000Y-105950000D01*
X168770000Y-103350000D02*
X168770000Y-93130000D01*
X168770000Y-103350000D02*
X166170000Y-103350000D01*
X168770000Y-93130000D02*
X163570000Y-93130000D01*
X166170000Y-105950000D02*
X163570000Y-105950000D01*
X166170000Y-103350000D02*
X166170000Y-105950000D01*
X163570000Y-105950000D02*
X163570000Y-93130000D01*
%TO.C,D3*%
X180440000Y-105785000D02*
X182360000Y-105785000D01*
X182360000Y-105785000D02*
X182360000Y-103100000D01*
X180440000Y-103100000D02*
X180440000Y-105785000D01*
%TO.C,J2*%
X154110000Y-105670000D02*
X154110000Y-107000000D01*
X152780000Y-105670000D02*
X154110000Y-105670000D01*
X151510000Y-105670000D02*
X143830000Y-105670000D01*
X151510000Y-105670000D02*
X151510000Y-108330000D01*
X143830000Y-105670000D02*
X143830000Y-108330000D01*
X151510000Y-108330000D02*
X143830000Y-108330000D01*
%TO.C,R2*%
X125670000Y-86120000D02*
X125670000Y-92660000D01*
X125340000Y-86120000D02*
X125670000Y-86120000D01*
X123260000Y-86120000D02*
X122930000Y-86120000D01*
X122930000Y-86120000D02*
X122930000Y-92660000D01*
X125670000Y-92660000D02*
X125340000Y-92660000D01*
X122930000Y-92660000D02*
X123260000Y-92660000D01*
%TO.C,D6*%
X174140000Y-105785000D02*
X176060000Y-105785000D01*
X176060000Y-105785000D02*
X176060000Y-103100000D01*
X174140000Y-103100000D02*
X174140000Y-105785000D01*
%TO.C,D1*%
X161950000Y-80850000D02*
X170000000Y-80850000D01*
X161950000Y-81850000D02*
X161950000Y-80850000D01*
X161950000Y-87150000D02*
X170000000Y-87150000D01*
%TO.C,R1*%
X119730000Y-92670000D02*
X119730000Y-86130000D01*
X120060000Y-92670000D02*
X119730000Y-92670000D01*
X122140000Y-92670000D02*
X122470000Y-92670000D01*
X122470000Y-92670000D02*
X122470000Y-86130000D01*
X119730000Y-86130000D02*
X120060000Y-86130000D01*
X122470000Y-86130000D02*
X122140000Y-86130000D01*
%TO.C,F1*%
X149450000Y-80000000D02*
X152650000Y-80000000D01*
X150300000Y-82000000D02*
X151900000Y-82000000D01*
X152650000Y-84000000D02*
X149450000Y-84000000D01*
%TO.C,J4*%
X127130000Y-117830000D02*
X125800000Y-117830000D01*
X127130000Y-116500000D02*
X127130000Y-117830000D01*
X127130000Y-115230000D02*
X127130000Y-107550000D01*
X127130000Y-115230000D02*
X124470000Y-115230000D01*
X127130000Y-107550000D02*
X124470000Y-107550000D01*
X124470000Y-115230000D02*
X124470000Y-107550000D01*
%TO.C,R7*%
X138830000Y-92660000D02*
X138830000Y-86120000D01*
X139160000Y-92660000D02*
X138830000Y-92660000D01*
X141240000Y-92660000D02*
X141570000Y-92660000D01*
X141570000Y-92660000D02*
X141570000Y-86120000D01*
X138830000Y-86120000D02*
X139160000Y-86120000D01*
X141570000Y-86120000D02*
X141240000Y-86120000D01*
%TO.C,R6*%
X135630000Y-92660000D02*
X135630000Y-86120000D01*
X135960000Y-92660000D02*
X135630000Y-92660000D01*
X138040000Y-92660000D02*
X138370000Y-92660000D01*
X138370000Y-92660000D02*
X138370000Y-86120000D01*
X135630000Y-86120000D02*
X135960000Y-86120000D01*
X138370000Y-86120000D02*
X138040000Y-86120000D01*
%TO.C,D4*%
X178340000Y-105785000D02*
X180260000Y-105785000D01*
X180260000Y-105785000D02*
X180260000Y-103100000D01*
X178340000Y-103100000D02*
X178340000Y-105785000D01*
%TO.C,M1*%
X175360000Y-110990000D02*
X175360000Y-118610000D01*
X175360000Y-118610000D02*
X185520000Y-118610000D01*
X185520000Y-110990000D02*
X175360000Y-110990000D01*
X185520000Y-117340000D02*
X175360000Y-117340000D01*
X185520000Y-118610000D02*
X185520000Y-110990000D01*
%TO.C,D5*%
X176240000Y-105785000D02*
X178160000Y-105785000D01*
X178160000Y-105785000D02*
X178160000Y-103100000D01*
X176240000Y-103100000D02*
X176240000Y-105785000D01*
%TO.C,R4*%
X129330000Y-92660000D02*
X129330000Y-86120000D01*
X129660000Y-92660000D02*
X129330000Y-92660000D01*
X131740000Y-92660000D02*
X132070000Y-92660000D01*
X132070000Y-92660000D02*
X132070000Y-86120000D01*
X129330000Y-86120000D02*
X129660000Y-86120000D01*
X132070000Y-86120000D02*
X131740000Y-86120000D01*
%TO.C,SO2*%
X116230000Y-110230000D02*
X116230000Y-117910000D01*
X113570000Y-117910000D02*
X116230000Y-117910000D01*
X113570000Y-110230000D02*
X116230000Y-110230000D01*
X113570000Y-110230000D02*
X113570000Y-117910000D01*
X113570000Y-108960000D02*
X113570000Y-107630000D01*
X113570000Y-107630000D02*
X114900000Y-107630000D01*
%TD*%
M02*
