M48
; DRILL file {KiCad 7.0.7} date Fri Jan 17 17:57:17 2025
; FORMAT={-:-/ absolute / inch / decimal}
; #@! TF.CreationDate,2025-01-17T17:57:17+01:00
; #@! TF.GenerationSoftware,Kicad,Pcbnew,7.0.7
; #@! TF.FileFunction,Plated,1,2,PTH
FMAT,2
INCH
; #@! TA.AperFunction,Plated,PTH,ViaDrill
T1C0.0157
; #@! TA.AperFunction,Plated,PTH,ComponentDrill
T2C0.0315
; #@! TA.AperFunction,Plated,PTH,ComponentDrill
T3C0.0394
; #@! TA.AperFunction,Plated,PTH,ComponentDrill
T4C0.0598
; #@! TA.AperFunction,Plated,PTH,ComponentDrill
T5C0.0787
; #@! TA.AperFunction,Plated,PTH,ComponentDrill
T6C0.0984
%
G90
G05
T1
X5.2835Y-3.9853
X5.452Y-3.4455
X5.5213Y-3.591
X5.6212Y-3.6405
X5.6581Y-4.0146
X5.6613Y-4.1269
X5.6745Y-3.6873
X5.7491Y-4.0337
X6.2518Y-3.8398
X6.2519Y-3.7991
X6.362Y-3.6639
X6.4331Y-3.4882
X6.5142Y-3.401
X6.715Y-4.0593
X6.7399Y-3.5507
X6.7953Y-3.185
X7.0748Y-3.5118
X7.2008Y-3.7992
T2
X4.7677Y-3.3697
X4.7677Y-3.6697
X4.8142Y-3.7787
X4.8142Y-4.0787
X4.8937Y-3.3693
X4.8937Y-3.6693
X4.9142Y-3.7787
X4.9142Y-4.0787
X5.0142Y-3.7787
X5.0142Y-4.0787
X5.0197Y-3.3693
X5.0197Y-3.6693
X5.1142Y-3.7787
X5.1142Y-4.0787
X5.1457Y-3.3693
X5.1457Y-3.6693
X5.2142Y-3.7787
X5.2142Y-4.0787
X5.2717Y-3.3693
X5.2717Y-3.6693
X5.3142Y-3.7787
X5.3142Y-4.0787
X5.3937Y-3.3693
X5.3937Y-3.6693
X5.4142Y-3.7787
X5.4142Y-4.0787
X5.4941Y-4.5236
X5.5142Y-3.7787
X5.5142Y-4.0787
X5.5197Y-3.3693
X5.5197Y-3.6693
X5.6142Y-3.7787
X5.6142Y-4.0787
X5.6862Y-4.5236
X5.7142Y-3.7787
X5.7142Y-4.0787
X5.8142Y-3.7787
X5.8142Y-4.0787
X5.9142Y-3.7787
X5.9142Y-4.0787
X6.0142Y-3.7787
X6.0142Y-4.0787
X6.1142Y-3.7787
X6.1142Y-4.0787
X6.9843Y-3.1992
X6.9843Y-3.2992
X6.9843Y-3.3992
X6.9843Y-3.4992
X6.9843Y-3.5992
X6.9843Y-3.6992
X6.9843Y-3.7992
X6.9843Y-3.8992
X7.4843Y-3.1992
X7.4843Y-3.2992
X7.4843Y-3.3992
X7.4843Y-3.4992
X7.4843Y-3.5992
X7.4843Y-3.6992
X7.4843Y-3.7992
X7.4843Y-3.8992
T3
X4.374Y-4.2906
X4.374Y-4.3906
X4.374Y-4.4906
X4.374Y-4.5906
X4.4055Y-3.4281
X4.4055Y-3.5281
X4.4055Y-3.6281
X4.5236Y-4.2898
X4.5236Y-4.3898
X4.5236Y-4.4898
X4.5236Y-4.5898
X4.5472Y-3.4291
X4.5472Y-3.5291
X4.5472Y-3.6291
X4.9118Y-3.1811
X4.9528Y-4.2866
X4.9528Y-4.3866
X4.9528Y-4.4866
X4.9528Y-4.5866
X5.0118Y-3.1811
X5.1118Y-3.1811
X5.2118Y-3.1811
X5.715Y-4.2126
X5.815Y-4.2126
X5.9118Y-4.315
X5.915Y-4.2126
X6.0118Y-4.315
X6.015Y-4.2126
X6.4921Y-3.7189
X6.4921Y-3.8189
X6.4921Y-3.9189
X6.4921Y-4.0189
X6.4921Y-4.1189
X6.5921Y-3.7189
X6.5921Y-3.8189
X6.5921Y-3.9189
X6.5921Y-4.0189
X6.5921Y-4.1189
X7.4724Y-4.1474
X7.4724Y-4.2474
X7.4724Y-4.3474
T4
X6.1898Y-4.5197
X6.3898Y-4.5197
X6.6008Y-4.5197
X6.8008Y-4.5197
X7.0039Y-4.5197
X7.2039Y-4.5197
T6
X5.7503Y-3.5141
X5.9284Y-3.5153
X6.122Y-3.5157
T5
G00X5.7598Y-3.2283
M15
G01X5.8189Y-3.2283
M16
G05
G00X6.0748Y-3.2283
M15
G01X6.1339Y-3.2283
M16
G05
T0
M30
